<?xml version="1.0" standalone="no"?>
<!DOCTYPE svg PUBLIC "-//W3C//DTD SVG 1.1//EN" "http://www.w3.org/Graphics/SVG/1.1/DTD/svg11.dtd" >
<svg>
<metadata>
Created by FontForge 20110222 at Mon Mar  7 11:36:39 2011
 By www-data
Copyright 1994 by Elfring Soft Fonts, All rights reserved.
</metadata>
<defs>
<font id="Fritz-Quad" horiz-adv-x="634" >
  <font-face 
    font-family="Fritz-Quad"
    font-weight="400"
    font-stretch="normal"
    units-per-em="1000"
    panose-1="0 0 0 0 0 0 0 0 0 0"
    ascent="800"
    descent="-200"
    x-height="516"
    cap-height="737"
    bbox="-203 -253 1311 986"
    underline-thickness="45"
    underline-position="-128"
    unicode-range="U+0020-2122"
  />
    <missing-glyph />
    <glyph glyph-name="space" unicode=" " horiz-adv-x="311" 
 />
    <glyph glyph-name="exclam" unicode="!" horiz-adv-x="265" 
d="M207 747l-27 -551h-88l-18 479q0 24 -13 49t-33 39h152q27 0 27 -16zM217 55q0 -33 -23.5 -50t-55.5 -17q-29 0 -51 19t-22 48q0 43 27 64q21 17 51 17q29 0 51.5 -23.5t22.5 -57.5z" />
    <glyph glyph-name="quotedbl" unicode="&#x22;" horiz-adv-x="265" 
d="M230 516h-62v228h62v-228zM106 516h-65v228h65v-228z" />
    <glyph glyph-name="numbersign" unicode="#" horiz-adv-x="622" 
d="M583 435h-134l-9 -96h118v-72h-127l-32 -265h-83l37 265h-97l-37 -265h-78l34 265h-134v72h153l9 96h-136v72h145l35 246h78l-35 -246h99l35 246h78l-34 -246h115v-72zM380 435h-106l-9 -96h106z" />
    <glyph glyph-name="dollar" unicode="$" horiz-adv-x="576" 
d="M537 196q0 -69 -66 -131.5t-155 -62.5v-96h-72v96l-60 -2q-30 0 -64 4t-69 14v134q45 -29 91 -57q49 -21 102 -21v274q-61 31 -121 63q-82 59 -82 149q0 94 75 139q45 27 128 38v99h72v-99q39 0 71 -6t62 -21v-125q-31 31 -66 54q-41 27 -67 27v-221q132 -75 164 -105
q57 -54 57 -144zM244 479v187q-29 0 -65 -25.5t-36 -57.5q0 -34 17.5 -53.5t83.5 -50.5zM422 177q0 88 -106 143v-246q40 0 73 35t33 68z" />
    <glyph glyph-name="percent" unicode="%" horiz-adv-x="933" 
d="M901 224q0 -94 -43 -162q-49 -78 -132 -78q-94 0 -145 73q-44 63 -44 150q0 91 41 161q50 86 134 86q89 0 142 -76q47 -67 47 -154zM691 744l-366 -742h-69l362 742h73zM406 532q0 -93 -43 -161q-49 -78 -133 -78q-94 0 -145 73q-44 63 -44 150q0 91 41 161q50 86 135 86
q88 0 142 -76q47 -67 47 -155zM820 214q0 66 -20 116q-28 71 -86 71q-52 0 -79 -68q-20 -51 -20 -119q0 -61 29 -114q33 -61 82 -61q56 0 79 64q15 42 15 111zM325 523q0 66 -20 116q-28 71 -86 71q-52 0 -79 -68q-20 -51 -20 -119q0 -60 29 -114q33 -61 81 -61q57 0 80 64
q15 42 15 111z" />
    <glyph glyph-name="ampersand" unicode="&#x26;" horiz-adv-x="899" 
d="M889 2h-159q-60 0 -139 53q-51 37 -73 53q-29 -50 -81 -86q-65 -45 -142 -45q-102 0 -181 60q-84 64 -84 159q0 70 39 130q35 53 113 119q-43 28 -66.5 70t-23.5 84q0 60 47 105q51 49 128 49q76 0 122 -43t46 -104q0 -45 -23 -90q-26 -50 -71 -81q80 -77 161 -153
q102 -94 184 -156q106 -80 203 -124zM341 613q-15 62 -81 62q-30 -5 -48 -21t-18 -41t19 -55t57 -60q37 26 54 55.5t17 59.5zM475 152l-222 221q-39 -37 -64 -76q-35 -55 -35 -103q0 -54 45 -93t103 -39q49 0 100 30q41 24 73 60z" />
    <glyph glyph-name="quotesingle" unicode="'" horiz-adv-x="207" 
d="M173 691q0 -43 -35.5 -99.5t-63.5 -56.5q-9 0 -18.5 6.5t-18.5 18.5q26 15 41 33q21 26 21 57q-34 0 -52.5 16.5t-18.5 43.5q0 26 18 44t51 18q36 0 56 -24.5t20 -56.5z" />
    <glyph glyph-name="parenleft" unicode="(" horiz-adv-x="334" 
d="M304 -147h-78q-72 118 -108 220q-42 118 -42 227q0 102 40 216.5t119 227.5h69q-67 -111 -102 -208q-43 -120 -43 -232q0 -102 34.5 -212t110.5 -239z" />
    <glyph glyph-name="parenright" unicode=")" horiz-adv-x="323" 
d="M256 302q0 -108 -42 -226q-37 -104 -108 -221h-78q74 126 109.5 239t35.5 212q0 113 -43 233q-35 96 -102 208h69q79 -113 119 -228t40 -217z" />
    <glyph glyph-name="asterisk" unicode="*" horiz-adv-x="403" 
d="M371 594q-39 0 -71.5 -6.5t-50.5 -20.5q25 -25 38 -36q24 -21 49 -33l-71 -53q-11 30 -25 56l-28 52q-20 -31 -27 -44q-17 -31 -28 -64l-79 53q37 11 59 37q20 30 29 41q-19 5 -39 8.5t-44 3.5q-11 0 -21.5 -0.5t-20.5 -2.5l37 99q41 -49 106 -62q0 31 -6.5 59.5
t-20.5 55.5h101q-28 -53 -28 -115q34 7 57 18t49 35z" />
    <glyph glyph-name="plus" unicode="+" horiz-adv-x="611" 
d="M562 233h-221v-231h-71v231h-222v60h222v242h71v-242h221v-60z" />
    <glyph glyph-name="comma" unicode="," horiz-adv-x="230" 
d="M168 51q0 -50 -39 -109q-28 -42 -55 -64h-65q21 24 45 53q36 43 43 64q-45 14 -53 23q-16 19 -16 56q0 24 20.5 39.5t45.5 15.5q29 0 51.5 -20.5t22.5 -57.5z" />
    <glyph glyph-name="hyphen" unicode="-" horiz-adv-x="438" 
d="M412 329l-62 -62q-12 -17 -25.5 -21t-43.5 -4h-134q-24 0 -46 -3t-53 -15l-9 9l72 69q15 15 26 16.5t29 1.5h157q19 0 32.5 2.5t47.5 16.5z" />
    <glyph glyph-name="period" unicode="." horiz-adv-x="242" 
d="M180 65q0 -37 -23.5 -57t-55.5 -20q-26 0 -49.5 22.5t-23.5 54.5q0 29 21 50t50 21q30 0 55.5 -20t25.5 -51z" />
    <glyph glyph-name="slash" unicode="/" horiz-adv-x="518" 
d="M482 744l-355 -901h-88l355 901h88z" />
    <glyph glyph-name="zero" unicode="0" horiz-adv-x="714" 
d="M659 373q0 -164 -74 -275q-80 -121 -216 -121q-141 0 -230 115q-84 108 -84 265q0 179 67 285q76 121 226 121q140 0 225.5 -107.5t85.5 -282.5zM523 380q0 121 -43 199q-48 87 -132 87q-75 0 -123 -93q-43 -84 -43 -200q0 -135 58 -225q55 -86 131 -86q66 0 111 104
q41 95 41 214z" />
    <glyph glyph-name="one" unicode="1" horiz-adv-x="714" 
d="M507 0h-240q65 49 65 108v461h-136q98 39 162 94q17 15 96 100v-652q0 -58 53 -111z" />
    <glyph glyph-name="two" unicode="2" horiz-adv-x="703" 
d="M645 136l-60 -134h-507l-9 7l302 436q22 27 36.5 63t14.5 61q0 43 -31 70t-89 27q-96 0 -205 -72l71 143q33 14 72 21t78 7q96 0 166 -47q76 -51 76 -128q0 -26 -9.5 -54t-29.5 -57l-256 -380q30 -9 66.5 -13.5t74.5 -4.5q71 0 137 15t102 40z" />
    <glyph glyph-name="three" unicode="3" horiz-adv-x="714" 
d="M615 228q0 -120 -109 -190q-94 -61 -216 -61l-152 11l-55 141q45 -29 99 -45.5t108 -16.5q71 0 124 36q61 42 68 116q0 65 -31 98q-44 47 -158 47q-34 0 -76 -5v93q9 -3 33 -5t38 -2q59 0 105.5 30t46.5 76q0 52 -38 86t-102 34q-42 0 -90.5 -15.5t-89.5 -42.5l53 124
q11 7 53 15t87 8q104 0 167 -34q82 -44 82 -143q0 -54 -29 -93.5t-95 -65.5q103 -28 143 -81q34 -45 34 -115z" />
    <glyph glyph-name="four" unicode="4" horiz-adv-x="703" 
d="M675 281l-62 -131h-85v-62q0 -50 53 -88h-222q26 12 39.5 34.5t13.5 50.5v65h-377l-10 9l344 578h159v-497q43 0 81.5 11.5t65.5 29.5zM412 240v410l-230 -401z" />
    <glyph glyph-name="five" unicode="5" horiz-adv-x="703" 
d="M618 242q0 -130 -113 -203q-95 -62 -224 -62q-33 0 -79 9q-6 1 -61 14l-47 115q39 -21 86.5 -34.5t95.5 -13.5q91 0 150 36q67 41 67 114q0 75 -63 119q-57 40 -135 40q-44 0 -88.5 -8.5t-84.5 -24.5l28 394h405v-140q-18 26 -74.5 37t-123.5 11l-110 -2l-10 -187
q58 14 113 14q111 0 189.5 -63.5t78.5 -164.5z" />
    <glyph glyph-name="six" unicode="6" horiz-adv-x="714" 
d="M645 242q0 -106 -63 -179q-74 -86 -211 -86q-163 0 -249 125q-62 90 -62 191q0 145 92 257q78 95 206 153q108 49 218 60l-62 -79q-141 -39 -233 -141q-99 -109 -99 -246q0 -98 50.5 -170t129.5 -72q81 0 124.5 47.5t43.5 137.5q0 64 -41 112q-47 56 -125 56
q-58 0 -136 -35l83 97q42 21 101 21q90 0 158 -65q75 -71 75 -184z" />
    <glyph glyph-name="seven" unicode="7" horiz-adv-x="714" 
d="M620 737l-265 -615q-10 -23 -15.5 -41.5t-5.5 -34.5q0 -28 30 -48h-196l284 645q-23 6 -65.5 10t-96.5 4t-103 -13t-102 -47l53 140h482z" />
    <glyph glyph-name="eight" unicode="8" horiz-adv-x="714" 
d="M664 187q0 -85 -74 -144q-85 -68 -233 -68q-131 0 -218 68q-81 64 -81 148q0 64 41 116q45 56 125 78q-71 35 -108.5 85t-37.5 97q0 76 78.5 136t189.5 60q117 0 196.5 -59t79.5 -135q0 -48 -34 -91q-38 -48 -106 -75q83 -24 134 -89q48 -60 48 -127zM502 574
q0 47 -38 76q-42 32 -116 32q-77 0 -109 -26.5t-32 -84.5q0 -39 82 -83q61 -30 123 -59q39 22 64.5 64t25.5 81zM544 187q0 56 -67 99q-54 34 -180 73q-63 -35 -92.5 -76t-29.5 -83q0 -58 64.5 -102.5t142.5 -44.5q77 0 119.5 37.5t42.5 96.5z" />
    <glyph glyph-name="nine" unicode="9" horiz-adv-x="714" 
d="M657 461q0 -201 -167 -346q-159 -138 -359 -138l65 71q70 20 131 55q87 50 139 122q66 91 66 204q0 101 -50 171q-55 77 -146 77q-67 0 -114 -58q-42 -52 -42 -110q0 -65 43 -120q48 -62 120 -62q29 0 64 13t72 36l-71 -97q-22 -13 -50 -21.5t-52 -8.5q-93 0 -166 65
q-80 71 -80 177q0 125 94 199q83 66 201 66q139 0 224 -93q78 -85 78 -202z" />
    <glyph glyph-name="colon" unicode=":" horiz-adv-x="276" 
d="M118 288q-29 0 -53 22t-24 54q0 31 23 46.5t54 15.5q29 0 52.5 -16t23.5 -44q0 -32 -24 -55t-52 -23zM189 65q0 -34 -20.5 -55.5t-55.5 -21.5q-34 0 -55 21t-21 56q0 33 19.5 47.5t56.5 14.5q36 0 56 -15t20 -47z" />
    <glyph glyph-name="semicolon" unicode=";" horiz-adv-x="288" 
d="M194 364q0 -34 -24 -55t-52 -21q-30 0 -52 18q-25 21 -25 58q0 35 21.5 48.5t55.5 13.5q31 0 53.5 -14.5t22.5 -47.5zM198 53q0 -50 -39 -109q-28 -42 -55 -64h-65q21 24 45 53q36 43 43 65q-38 12 -43 15q-26 18 -26 63q0 25 19.5 40t46.5 15q29 0 51.5 -20.5
t22.5 -57.5z" />
    <glyph glyph-name="less" unicode="&#x3c;" horiz-adv-x="668" 
d="M615 -32l-557 265v69l557 251v-74l-477 -212l477 -230v-69z" />
    <glyph glyph-name="equal" unicode="=" horiz-adv-x="611" 
d="M574 302h-523v71h523v-71zM574 152h-523v72h523v-72z" />
    <glyph glyph-name="greater" unicode="&#x3e;" horiz-adv-x="668" 
d="M624 233l-576 -256v69l489 221l-489 212v81l576 -267v-60z" />
    <glyph glyph-name="question" unicode="?" horiz-adv-x="541" 
d="M475 548q0 -72 -57 -140q-1 -1 -107 -105q-58 -57 -58 -98q0 -11 2.5 -18.5t9.5 -18.5l-90 -7q-5 9 -8 22t-3 24q0 62 50 118l92 88q51 52 51 103q0 58 -45 104t-109 46q-42 0 -89 -16q-34 -12 -82 -37l81 115q20 8 48.5 12t55.5 4h4q98 0 172 -51q82 -56 82 -145z
M300 53q0 -33 -20.5 -54.5t-55.5 -21.5t-56 20t-21 56q0 33 20 47.5t57 14.5q36 0 56 -15t20 -47z" />
    <glyph glyph-name="at" unicode="@" horiz-adv-x="853" 
d="M818 198q-65 -102 -135 -150q-91 -62 -227 -62q-163 0 -284 114.5t-121 252.5q0 164 107 283q116 129 298 129q145 0 245 -78q117 -91 117 -256q0 -117 -76 -204q-80 -91 -196 -91q-39 0 -56 10q-23 13 -34 52q-19 -29 -50.5 -45.5t-66.5 -16.5q-54 0 -95 37
q-44 40 -44 103q0 114 79.5 221t176.5 107q35 0 60.5 -10.5t38.5 -33.5l19 23h99l-127 -348l-5 -23q0 -28 28 -28q51 0 112 68q72 80 72 181q0 98 -86 182q-91 88 -211 88q-122 0 -216 -76q-116 -94 -116 -265q0 -116 95 -213q101 -103 237 -103q94 0 170.5 41t117.5 111h74
zM525 491q0 21 -5 33q-8 20 -27 20q-61 0 -126 -105t-65 -199q0 -18 15 -31t38 -13q36 0 103 113.5t67 181.5z" />
    <glyph glyph-name="A" unicode="A" horiz-adv-x="841" 
d="M823 0h-240q21 11 31 25t10 28q0 12 -5 26q-8 18 -11 27l-67 175h-274l-71 -193q-7 -20 -7 -30q0 -18 14 -33q20 -16 30 -25h-221q40 30 66 66q20 28 30 58l210 535q7 17 7 30q0 14 -9.5 27.5t-22.5 20.5h175l265 -631q13 -35 38 -60q34 -29 52 -46zM505 359l-106 275
l-106 -275h212z" />
    <glyph glyph-name="B" unicode="B" 
d="M601 221q0 -128 -112 -184q-74 -37 -180 -37h-284q28 19 37 38t9 59v546q0 30 -9 53q-12 30 -37 41h265q109 0 175.5 -47.5t66.5 -127.5q0 -46 -30 -86t-78 -54q102 -33 142 -86q35 -47 35 -115zM399 555q0 71 -56 91q-36 13 -149 13v-219l39 -2q62 0 110 29q56 34 56 88
zM470 221q0 62 -45 98q-54 43 -167 43l-64 -3v-271q61 -10 119 -10q71 0 112 34q45 38 45 109z" />
    <glyph glyph-name="C" unicode="C" horiz-adv-x="703" 
d="M680 150l-46 -134q-68 -19 -97 -26q-58 -13 -99 -13q-164 0 -286 106q-131 114 -131 286q0 168 77 265q97 122 310 122q53 0 107 -6t109 -20v-133q-59 36 -123 51q-47 11 -98 11q-116 0 -186 -86q-63 -77 -63 -188q0 -118 74 -208q81 -99 207 -99q59 0 128 23
q46 15 117 49z" />
    <glyph glyph-name="D" unicode="D" horiz-adv-x="749" 
d="M726 369q0 -141 -109 -248q-124 -121 -324 -121h-265q33 18 44 44.5t11 70.5v519q0 45 -17 68q-25 23 -38 35h274q193 0 315 -120q109 -107 109 -248zM594 359q0 160 -100 229q-73 50 -194 50q-21 0 -47.5 -1.5t-56.5 -2.5v-546q17 -7 36 -10.5t44 -3.5q108 0 204 70
q114 83 114 215z" />
    <glyph glyph-name="E" unicode="E" horiz-adv-x="576" 
d="M555 152l-62 -150h-461q27 25 36.5 47.5t9.5 49.5v514q0 47 -5 66q-9 34 -41 58h364q25 0 33 1t20 6v-140q-21 26 -63 36t-100 10h-95v-205h106h13q30 0 44 1.5t26 7.5v-125q-12 19 -40.5 27t-67.5 8h-81v-265q52 -8 78 -11q51 -7 81 -7q55 0 103 15q56 18 102 56z" />
    <glyph glyph-name="F" unicode="F" horiz-adv-x="438" 
d="M454 604q-17 24 -56.5 36t-93.5 12q-29 0 -56 -2t-52 -9v-196h124q25 0 46 1.5t26 7.5v-125q-9 16 -43 24.5t-75 8.5q-13 0 -26 -1l-52 -4v-239q0 -42 11 -68q16 -37 53 -48h-232q36 17 48 54q7 22 7 62v525q0 32 -7 50q-10 27 -39 44h339h41q30 2 37 7v-140z" />
    <glyph glyph-name="G" unicode="G" horiz-adv-x="806" 
d="M772 9q-56 -16 -119 -24t-128 -8q-206 0 -336 88q-154 104 -154 304q0 198 146 301q124 88 317 88q93 0 186 -21v-133q-40 34 -92.5 51.5t-105.5 17.5q-122 0 -213 -79q-98 -85 -98 -214q0 -162 117 -250q95 -72 220 -72q41 0 72 6t63 17v172q0 50 -10.5 78.5t-42.5 46.5
h178q-5 -9 -7 -22t-2 -41v-20v-230q0 -19 1.5 -30.5t7.5 -25.5z" />
    <glyph glyph-name="H" unicode="H" horiz-adv-x="806" 
d="M779 2h-219q28 11 41 41q10 23 10 56v258h-408v-249q0 -67 55 -106h-223q26 11 40.5 41.5t14.5 64.5v496q0 51 -5 71q-9 39 -41 62h214q-55 -27 -55 -124v-168h408v177q0 37 -15 69.5t-45 45.5h228q-3 -6 -23 -27q-30 -33 -30 -88v-514q0 -41 10.5 -64t42.5 -42z" />
    <glyph glyph-name="I" unicode="I" horiz-adv-x="311" 
d="M281 0h-246q21 4 41.5 30.5t20.5 63.5v540q0 36 -10 58q-13 27 -46 45h224q-29 -20 -42 -44t-13 -69v-530q0 -28 22.5 -59t48.5 -35z" />
    <glyph glyph-name="J" unicode="J" horiz-adv-x="300" 
d="M267 737q-23 -14 -34 -29q-15 -20 -21 -58v-708q0 -94 -99 -150q-79 -45 -164 -45q87 42 120 119q21 49 21 118v666q0 26 -18 48q-14 17 -47 39h242z" />
    <glyph glyph-name="K" unicode="K" horiz-adv-x="703" 
d="M696 0h-113q-41 0 -85 24q-37 20 -46 38l-240 325l203 272q7 12 7 23q0 16 -12 32t-28 23h219l-265 -334l231 -297q19 -27 55.5 -57.5t73.5 -48.5zM258 0h-233q33 14 42 26q14 18 14 62v527q0 79 -7 91q-1 2 -49 31h224q-34 -31 -38 -36q-17 -25 -17 -77v-500
q0 -48 14 -76.5t50 -47.5z" />
    <glyph glyph-name="L" unicode="L" horiz-adv-x="576" 
d="M560 150l-62 -150h-473q32 21 46 50q10 21 10 47v546q0 43 -13 60q-20 17 -33 34h223l-34 -28q-21 -26 -21 -75v-537q41 -5 81.5 -9.5t74.5 -4.5q55 0 103.5 15.5t97.5 51.5z" />
    <glyph glyph-name="M" unicode="M" horiz-adv-x="1083" 
d="M1058 0h-238q29 8 42 40q9 22 9 52v23l-60 500l-246 -617q-25 0 -54 34q-23 27 -46 74l-221 509l-71 -500q0 -43 10 -66.5t43 -48.5h-203q29 17 47 56q15 33 15 59l72 509l2 44q0 31 -14 46q-15 14 -25 23h193l242 -543l201 543h205q-22 -8 -35.5 -28.5t-13.5 -40.5
q0 -4 1.5 -8.5t3.5 -9.5l71 -535q10 -44 22 -68q18 -36 48 -47z" />
    <glyph glyph-name="N" unicode="N" horiz-adv-x="818" 
d="M809 737q-23 -15 -46 -29q-19 -21 -26 -84v-647q-27 0 -66.5 20.5t-57.5 46.5l-424 537v-466q0 -47 13 -71.5t49 -43.5h-214q37 25 46 36q19 23 25 70v500q0 68 -25 99q-9 11 -46 32h168l454 -571v449q0 111 -74 122h224z" />
    <glyph glyph-name="O" unicode="O" horiz-adv-x="910" 
d="M873 373q0 -143 -96 -259q-113 -137 -302 -137q-202 0 -321 109q-115 105 -115 271q0 147 92 259q115 140 325 140q180 0 296 -101q121 -106 121 -282zM737 357q0 122 -79 217q-86 103 -213 103q-101 0 -179 -85q-84 -92 -84 -228q0 -128 89 -215q86 -84 204 -84
t190 83.5t72 208.5z" />
    <glyph glyph-name="P" unicode="P" horiz-adv-x="599" 
d="M576 532q0 -89 -85 -153q-72 -54 -136 -54q-55 0 -77 5.5t-38 22.5l16 -3q71 0 128.5 48.5t57.5 119.5q0 72 -48 106q-42 30 -118 30q-15 0 -25 -0.5t-39 -3.5v-544q0 -43 18 -70q15 -22 44 -36h-239q27 12 44.5 40t17.5 66v509q0 63 -11 86t-42 36h246q152 0 227 -69
q59 -54 59 -136z" />
    <glyph glyph-name="Q" unicode="Q" horiz-adv-x="887" 
d="M1035 -147q-32 -29 -69 -43.5t-74 -14.5q-56 0 -118 29q-51 24 -119 75q-45 34 -116 96q-30 -7 -58.5 -12.5t-47.5 -5.5q-157 0 -272 103q-129 116 -129 307q0 74 42 153q49 93 133 149q100 67 231 67q190 0 310.5 -105.5t120.5 -277.5q0 -92 -53 -187
q-61 -109 -152 -140q129 -105 161 -125q107 -68 210 -68zM733 364q0 150 -89 237q-81 79 -202 79q-103 0 -184 -75q-94 -87 -94 -229q0 -141 103 -233q91 -81 196 -81q104 0 184 82q86 88 86 220z" />
    <glyph glyph-name="R" unicode="R" horiz-adv-x="703" 
d="M700 0h-122q-37 0 -61 11q-33 15 -70 60l-228 302q103 39 144 74q47 41 47 101q0 53 -36 82t-102 29q-21 0 -34 -1t-35 -6v-555q0 -35 12.5 -60t40.5 -37h-231q27 5 41.5 29t14.5 59v539q0 62 -17 84q-5 7 -39 26h247q121 0 188 -40q77 -46 77 -142q0 -75 -59 -134
q-51 -51 -116 -66q80 -101 161 -202q92 -107 177 -153z" />
    <glyph glyph-name="S" unicode="S" horiz-adv-x="599" 
d="M565 212q0 -109 -95 -174q-89 -61 -226 -61q-43 0 -91 8t-105 22l-27 143q49 -44 111.5 -67t120.5 -23q67 0 119 33t52 84q0 74 -120 132q-91 45 -182 91q-92 61 -92 151q0 100 83 156q73 49 182 49q55 0 112.5 -5.5t83.5 -17.5v-125q-33 28 -86 46.5t-105 18.5
q-54 0 -95 -27t-41 -70q0 -55 80 -104q22 -13 171 -83q58 -26 97 -65q53 -53 53 -112z" />
    <glyph glyph-name="T" unicode="T" 
d="M615 747l-46 -139q-6 19 -34 31.5t-60 12.5h-109v-574q0 -28 22 -49q11 -11 43 -29h-231q53 24 53 78v574h-85q-94 0 -147 -44l34 139q7 -7 19 -8.5t41 -1.5h438q22 0 32 1.5t30 8.5z" />
    <glyph glyph-name="U" unicode="U" horiz-adv-x="726" 
d="M707 0h-166v71q-52 -56 -85 -71q-52 -23 -127 -23q-143 0 -213 86q-56 68 -56 172v408q0 34 -9.5 53.5t-32.5 40.5h203q-14 -12 -25.5 -40t-11.5 -54v-390q0 -100 56 -149q44 -39 110 -39q89 0 140 43t51 111v389q0 52 -11.5 80.5t-38.5 48.5h207q-22 -23 -31.5 -55
t-9.5 -74v-502q0 -45 10 -69.5t40 -36.5z" />
    <glyph glyph-name="V" unicode="V" horiz-adv-x="714" 
d="M703 737l-307 -767q-46 12 -83 58q-30 37 -48 87l-194 521q-15 38 -27 57q-16 26 -37 44h180q-5 -12 -5 -27q0 -8 5 -32t9 -35l182 -505l187 489l2 30q0 24 -13.5 45t-35.5 35h185z" />
    <glyph glyph-name="W" unicode="W" horiz-adv-x="1094" 
d="M1076 737l-235 -767q-42 16 -77 43q-44 34 -54 65l-141 436l-175 -544q-56 29 -91 69q-39 44 -59 108l-147 480q-9 33 -41 71q-24 27 -35 39h173q-1 -3 -2 -10t-1 -13q0 -28 12 -71l166 -505l138 480q7 18 7 39q0 26 -11.5 46.5t-32.5 33.5h168q-3 -12 -3.5 -16t-0.5 -14
q0 -37 13 -80l157 -480l141 452q3 18 5 31.5t2 23.5q0 37 -20 58q-13 14 -40 25h184z" />
    <glyph glyph-name="X" unicode="X" horiz-adv-x="783" 
d="M781 0h-140q-24 0 -48 21q-18 15 -35 41l-178 261l-170 -226q-4 -7 -10 -21t-6 -21q0 -19 14 -34q11 -12 29 -21h-228l318 392l-186 269q-17 26 -37 42q-14 11 -53 34h117q42 0 63 -12q16 -9 34 -36l143 -212l133 175q14 20 14 39q0 14 -13 25q-17 15 -47 21h226
l-260 -327l223 -332q31 -38 43 -49q26 -24 54 -29z" />
    <glyph glyph-name="Y" unicode="Y" horiz-adv-x="726" 
d="M712 737l-293 -414v-226q0 -36 21 -62q14 -18 42 -35h-231q55 24 55 88v235l-202 329q-16 27 -36.5 45t-58.5 40h104q37 0 60.5 -10.5t54.5 -55.5l148 -254l149 219q10 14 10 37t-13 42t-31 22h221z" />
    <glyph glyph-name="Z" unicode="Z" horiz-adv-x="680" 
d="M668 138l-62 -138h-594l410 652q-29 5 -60.5 8.5t-68.5 3.5q-71 0 -134 -15.5t-101 -49.5l53 138h513l-417 -649l42 2q23 0 89 -6t104 -6q64 0 120 13t106 47z" />
    <glyph glyph-name="bracketleft" unicode="[" horiz-adv-x="334" 
d="M311 -147h-256q22 11 32 49t10 84v664q0 28 -8.5 47.5t-33.5 39.5h256v-62h-115v-760h115v-62z" />
    <glyph glyph-name="backslash" unicode="\" horiz-adv-x="219" 
d="M187 2h-79l-311 742h79z" />
    <glyph glyph-name="bracketright" unicode="]" horiz-adv-x="357" 
d="M293 -147h-256v62h115v760h-115v62h256q-24 -19 -33 -39.5t-9 -47.5v-664q0 -50 9 -86t33 -47z" />
    <glyph glyph-name="asciicircum" unicode="^" horiz-adv-x="588" 
d="M558 313h-70l-193 358l-189 -358h-71l228 424h69z" />
    <glyph glyph-name="underscore" unicode="_" horiz-adv-x="565" 
d="M565 -138h-565v62h565v-62z" />
    <glyph glyph-name="grave" unicode="`" horiz-adv-x="468" 
d="M401 489l-327 96l71 81z" />
    <glyph glyph-name="a" unicode="a" horiz-adv-x="599" 
d="M576 60l-55 -83q-69 0 -109.5 35.5t-40.5 95.5v168q-8 -6 -131 -37q-90 -23 -90 -87q0 -41 32 -69t81 -28q16 0 41 8.5t49 17.5l-63 -93q-10 -1 -21 -4q-27 -7 -36 -7q-86 0 -143.5 50.5t-57.5 115.5q0 92 76 130q36 18 157 38q47 9 77.5 28.5t30.5 40.5q0 30 -38 49.5
t-72 19.5q-36 0 -88.5 -16.5t-70.5 -22.5l87 115q9 0 35 5t41 5q85 0 138 -34q72 -46 72 -146v-187q0 -57 18 -80q22 -28 81 -28z" />
    <glyph glyph-name="b" unicode="b" horiz-adv-x="611" 
d="M585 270q0 -135 -89 -214t-236 -79q-64 0 -123 9t-109 16q25 5 37 32q9 21 9 47v569q0 38 -13.5 59t-42.5 35h72q33 0 58.5 4.5t31.5 14.5v-682q19 -7 42 -14t43 -7q77 0 133 46q65 54 65 145q0 97 -54 148q-45 43 -107 43q-23 0 -49.5 -5t-56.5 -18l64 97
q20 6 40.5 12.5t38.5 6.5q101 0 173.5 -81t72.5 -184z" />
    <glyph glyph-name="c" unicode="c" horiz-adv-x="576" 
d="M555 118l-64 -116q-58 -25 -136 -25q-132 0 -222 67q-105 78 -105 221q0 126 107 202q95 68 224 68q27 0 57.5 -5.5t65.5 -13.5v-124q-25 25 -66.5 41t-83.5 16q-75 0 -126 -45q-59 -52 -59 -144q0 -98 78 -152q66 -46 160 -46q48 0 95.5 15t74.5 41z" />
    <glyph glyph-name="d" unicode="d" horiz-adv-x="657" 
d="M634 2h-152v281q0 93 -54 132q-41 30 -115 30q-77 0 -118 -49t-41 -129q0 -89 59 -149q55 -56 128 -56q29 0 57.5 7.5t57.5 24.5l-69 -103q-17 -5 -33 -9.5t-29 -4.5q-109 0 -191 62q-104 79 -104 228q0 102 64 178q76 90 210 90q57 0 86 -7q50 -12 85 -49v187
q0 27 -9 41.5t-37 36.5h85q17 0 37 7t27 14v-647q0 -40 7 -58q11 -28 49 -58z" />
    <glyph glyph-name="e" unicode="e" horiz-adv-x="611" 
d="M581 127l-51 -109q-39 -17 -83 -29t-81 -12q-133 0 -233.5 83.5t-100.5 199.5q0 96 72 178q85 97 221 97q112 0 182 -66q74 -70 74 -193h-431q0 -93 71.5 -154.5t184.5 -61.5q48 0 85 12q48 16 90 55zM459 348q0 34 -49 70t-94 36q-49 0 -90 -26q-47 -30 -60 -80h293z
" />
    <glyph glyph-name="f" unicode="f" horiz-adv-x="357" 
d="M399 749l-88 -74q-14 7 -32.5 11.5t-29.5 4.5q-34 0 -51.5 -23.5t-17.5 -63.5v-90q71 0 98.5 3t50.5 11v-111q-9 9 -22 13.5t-40 4.5h-87v-299q0 -54 12 -83.5t41 -50.5h-205q22 13 38.5 37.5t16.5 50.5v345h-62l62 83v95q0 77 76 117q62 33 147 33q20 0 44.5 -5t48.5 -9
z" />
    <glyph glyph-name="g" unicode="g" horiz-adv-x="645" 
d="M620 535q-9 -55 -27 -77.5t-56 -22.5q-12 0 -37.5 6t-50.5 13q32 -24 51 -53q23 -35 23 -72q0 -60 -27 -99q-23 -34 -67 -53q-25 -11 -124 -31q-61 -12 -61 -38q0 -8 46 -11q135 -8 194 -28q52 -15 83 -41q39 -32 39 -72q0 -68 -56 -115q-82 -69 -262 -69q-119 0 -206 37
q-100 42 -100 115q0 43 38 66q31 19 74 19q24 0 38.5 -6t14.5 -15q-12 -2 -24 -17.5t-12 -32.5q0 -37 38 -63q48 -32 139 -32q99 0 152 28.5t53 77.5q0 42 -69 61q-55 15 -148 15l-82 -2q-32 0 -60 21.5t-28 47.5q0 21 18.5 36.5t59.5 23.5q-70 26 -109.5 79.5t-39.5 116.5
q0 72 64 126q72 61 191 61h330zM399 327q0 43 -40 85t-80 42q-59 0 -93 -29t-34 -75q0 -50 47 -94t94 -44q43 0 74.5 32.5t31.5 82.5z" />
    <glyph glyph-name="h" unicode="h" 
d="M601 2h-202q28 10 37 37q6 18 6 51v233q0 51 -17 81q-29 52 -105 52q-45 0 -83 -31q-43 -35 -43 -86v-231q0 -58 15 -77q12 -16 58 -29h-242q37 11 52 41q11 22 11 56v551q0 70 -53 94h80q33 0 47.5 5t21.5 14v-293q17 27 69.5 46t110.5 19q80 0 128 -39q59 -48 59 -148
v-240q0 -48 15 -73q10 -17 35 -33z" />
    <glyph glyph-name="i" unicode="i" horiz-adv-x="288" 
d="M205 659q0 -36 -23.5 -56t-54.5 -20q-28 0 -51 22t-23 54q0 28 21.5 49.5t49.5 21.5q30 0 55.5 -20t25.5 -51zM251 2h-214q33 19 44 38.5t11 49.5v336q0 46 -15 66q-20 17 -29 26h63h14q34 0 50.5 3t22.5 14v-445q0 -35 9.5 -52t43.5 -36z" />
    <glyph glyph-name="j" unicode="j" horiz-adv-x="230" 
d="M184 654q0 -30 -18 -51.5t-51 -21.5q-32 0 -53 23t-21 50q0 26 17.5 44.5t49.5 18.5q33 0 54.5 -17.5t21.5 -45.5zM184 -60q0 -81 -60 -128q-53 -42 -126 -42h-28q53 32 78 78q21 39 21 90v495q0 31 -7 46.5t-34 36.5h90q43 0 66 16v-592z" />
    <glyph glyph-name="k" unicode="k" horiz-adv-x="622" 
d="M611 2h-125q-26 0 -42.5 8.5t-35.5 35.5l-198 242l143 157q16 16 16 32q0 8 -6 16.5t-20 22.5h187l-205 -212l180 -214q23 -30 47 -51q29 -26 59 -37zM258 2h-223q25 6 41 27q21 27 21 70v551q0 43 -19 65q-21 19 -34 32h69q30 0 49 5t32 11v-645q0 -39 18 -71.5
t46 -44.5z" />
    <glyph glyph-name="l" unicode="l" horiz-adv-x="288" 
d="M251 2h-214q30 14 44 46q11 25 11 63v511q0 60 -13 84q-8 15 -42 38h87q30 0 45.5 3t28.5 16v-645q0 -45 10.5 -71.5t42.5 -44.5z" />
    <glyph glyph-name="m" unicode="m" horiz-adv-x="1002" 
d="M975 2h-231q38 12 50 32.5t12 64.5v212q-6 66 -47 103q-37 33 -86 33q-46 0 -81.5 -29t-40.5 -79v-231q0 -48 10 -71t40 -35h-202q23 6 38 32.5t15 73.5v152q0 95 -44 147q-38 45 -95 45q-47 0 -83 -32t-36 -81v-240q0 -46 15 -69.5t40 -27.5h-214q23 9 39 36.5t16 60.5
v283q0 55 -9.5 85.5t-36.5 57.5q15 0 45 -3.5t40 -3.5q16 0 33.5 4t31.5 13v-90q18 41 62 65.5t94 24.5q58 0 107 -29t66 -80q21 45 78 77t118 32q81 0 133 -54q60 -62 60 -179v-205q0 -43 12.5 -63t50.5 -32z" />
    <glyph glyph-name="n" unicode="n" horiz-adv-x="645" 
d="M611 2h-212q29 13 41 34t12 72v231q0 56 -39 86.5t-93 30.5q-49 0 -85 -38q-41 -43 -41 -107v-205q0 -53 14 -76t50 -28h-223q29 12 45.5 35t16.5 62v327q0 44 -10 63.5t-34 35.5l76 -2q24 0 39 4.5t26 16.5v-90q23 38 71 59.5t104 21.5q77 0 130 -44q61 -51 61 -141
v-242q0 -48 10.5 -71t40.5 -35z" />
    <glyph glyph-name="o" unicode="o" 
d="M611 263q0 -118 -81 -200q-85 -86 -212 -86q-125 0 -206 86q-77 82 -77 195q0 117 87 197t212 80q122 0 201 -81q76 -78 76 -191zM498 251q0 78 -39 135q-46 68 -127 68q-84 0 -135 -58q-47 -54 -47 -131q0 -80 45 -141q51 -69 132 -69q80 0 128 65q43 58 43 131z" />
    <glyph glyph-name="p" unicode="p" horiz-adv-x="657" 
d="M622 267q0 -108 -72 -195q-79 -95 -195 -95q-19 0 -42 6l-46 12l-71 106q64 -36 140 -36q74 0 123.5 55.5t49.5 139.5q0 77 -42 133q-46 61 -119 61q-89 0 -128 -38q-43 -42 -43 -140v-398q0 -43 11.5 -68t44.5 -38h-224q38 12 53 40q12 23 12 64v557q0 32 -7 50
q-11 28 -39 42l71 -2q33 0 54 4.5t24 16.5v-83q29 34 80.5 54t108.5 20q102 0 172 -60q84 -72 84 -208z" />
    <glyph glyph-name="q" unicode="q" horiz-adv-x="657" 
d="M624 -228h-193q26 14 39.5 37t13.5 60v557q-36 7 -66 10.5t-54 3.5q-84 0 -138 -35q-72 -46 -72 -145q0 -89 60 -147t139 -58q26 0 58 9q14 4 36 12l-53 -88q-34 -6 -51.5 -8.5t-38.5 -2.5q-125 0 -200 91q-65 79 -65 183q0 103 63 175q79 90 230 90h292q-27 -28 -35 -49
t-8 -66v-532q0 -37 10 -62t33 -35z" />
    <glyph glyph-name="r" unicode="r" horiz-adv-x="392" 
d="M369 424q-5 11 -21.5 17t-36.5 6q-40 0 -73 -42q-38 -49 -38 -129v-179q0 -71 53 -95h-214q28 14 41.5 37t13.5 51v336q0 43 -12 67q-8 16 -34 42l93 -3q18 0 34 1.5t25 10.5v-83q19 37 51 55.5t72 18.5q11 0 22.5 -2.5t23.5 -4.5v-104z" />
    <glyph glyph-name="s" unicode="s" horiz-adv-x="507" 
d="M479 166q0 -86 -81 -140q-74 -49 -174 -49q-42 0 -85 12.5t-65 28.5l-37 109q44 -31 103 -52.5t111 -21.5q46 0 85.5 25t39.5 60q0 30 -59 56q-29 13 -70 27q-87 30 -124 56q-58 41 -58 105q0 81 71 121q57 32 145 32q34 0 67 -6.5t62 -12.5v-97q-34 16 -73.5 26.5
t-73.5 10.5q-29 0 -55 -12q-35 -16 -35 -45q0 -27 59 -53q24 -11 72 -28q69 -29 92 -42q83 -47 83 -110z" />
    <glyph glyph-name="t" unicode="t" horiz-adv-x="380" 
d="M355 74l-62 -88q-25 -4 -49 -9q-76 0 -115 59q-30 46 -30 107v302h-81v43q62 0 98 49.5t36 146.5h44v-168h80h12q26 0 36 1.5t24 7.5v-106q-15 26 -72 26h-80v-258q0 -59 33 -95q30 -32 71 -32q14 0 28 4t27 10z" />
    <glyph glyph-name="u" unicode="u" 
d="M601 2h-159v79q-7 -42 -54 -73t-102 -31q-75 0 -133 49q-65 55 -65 142v251q0 44 -16 69q-11 18 -40 37q11 0 48 -5q15 -2 26 -2q44 0 88 17v-321q0 -62 34.5 -103.5t82.5 -41.5q43 0 85 37q46 41 46 90v230q0 44 -10 63.5t-33 35.5q18 -3 36.5 -5t25.5 -2q56 0 87 17
v-427q0 -47 17 -73q11 -17 36 -33z" />
    <glyph glyph-name="v" unicode="v" horiz-adv-x="645" 
d="M634 516l-265 -539q-55 31 -87 69q-24 29 -54 90l-127 265q-24 50 -36 67q-21 28 -58 48h21q57 0 88.5 1.5t49.5 7.5l184 -407l134 292q11 25 11 49q0 20 -8.5 35t-27.5 22h175z" />
    <glyph glyph-name="w" unicode="w" horiz-adv-x="933" 
d="M919 516l-223 -539q-43 6 -72.5 45.5t-47.5 104.5l-90 237l-154 -387q-38 6 -68 39q-13 14 -45 65l-143 345q-11 25 -22 51q-14 27 -36 39h17q44 0 78.5 3.5t45.5 15.5l150 -392l106 258q14 36 14 55q0 17 -7.5 32t-22.5 28h149q0 -19 6 -41q3 -11 13 -40l115 -299
l106 265q3 10 6 26.5t3 26.5q0 38 -27 62h149z" />
    <glyph glyph-name="x" unicode="x" horiz-adv-x="645" 
d="M629 2h-106q-33 0 -46 5q-22 8 -51 39l-124 168l-99 -115q-15 -20 -21 -30q-9 -16 -9 -25q0 -23 39 -42h-210l247 281q-58 71 -115 143q-66 79 -99 90h126q32 0 103 -89q43 -53 63 -70l72 78q27 29 27 44q0 10 -7.5 19.5t-19.5 17.5h193l-212 -233l143 -184
q29 -36 49 -55q25 -23 57 -42z" />
    <glyph glyph-name="y" unicode="y" horiz-adv-x="622" 
d="M615 516l-242 -567q-44 -78 -70 -106q-66 -71 -158 -71q-23 0 -52.5 5.5t-99.5 26.5l101 72q40 -28 67 -28q48 0 91 58q30 41 52 103l-214 417q-19 41 -38 61q-10 10 -38 29h115q24 0 35 -10t25 -45l157 -353l133 327q5 12 5 21q0 21 -16 39q-12 14 -30 21h177z" />
    <glyph glyph-name="z" unicode="z" horiz-adv-x="588" 
d="M565 127l-63 -125h-484l307 433l-21 -2q-17 0 -59.5 2.5t-55.5 2.5q-44 0 -82 -10t-66 -36l63 124h408l-302 -426q29 0 106 -9q43 -5 64 -5q53 0 98 11.5t87 39.5z" />
    <glyph glyph-name="braceleft" unicode="{" horiz-adv-x="334" 
d="M306 -124q-69 0 -104 22q-45 29 -45 97v208q0 43 -28 71t-71 37q40 7 69.5 32.5t29.5 57.5v256q0 56 51 75q32 12 98 12q-50 -18 -69.5 -44.5t-19.5 -68.5v-205q0 -88 -79 -115q41 -7 60 -33.5t19 -90.5v-178q0 -64 21 -91q15 -19 68 -42z" />
    <glyph glyph-name="bar" unicode="|" horiz-adv-x="253" 
d="M164 5h-72v742h72v-742z" />
    <glyph glyph-name="braceright" unicode="}" horiz-adv-x="334" 
d="M276 306q-43 -9 -69 -35q-30 -30 -30 -73v-207q0 -68 -44 -97q-35 -23 -105 -23q54 24 68 42q22 27 22 92v177q0 64 18 90.5t60 33.5q-41 15 -59.5 42t-18.5 74v205q0 54 -33 83q-15 13 -57 30q66 0 97 -12q52 -20 52 -76v-256q0 -31 29.5 -56.5t69.5 -33.5z" />
    <glyph glyph-name="asciitilde" unicode="~" 
d="M604 454q-30 -50 -69.5 -79t-87.5 -29q-22 0 -50 8t-58 22q-60 25 -90 33t-53 8q-34 0 -60.5 -18t-43.5 -60l-55 37q26 50 69.5 78t98.5 28q68 0 143 -37q54 -30 101 -30q34 0 61 18t41 58z" />
    <glyph glyph-name="quotesinglbase" unicode="&#x201a;" horiz-adv-x="230" 
d="M168 51q0 -50 -39 -109q-28 -42 -55 -64h-65q21 24 45 53q36 43 43 64q-45 14 -53 23q-16 19 -16 56q0 24 20.5 39.5t45.5 15.5q29 0 51.5 -20.5t22.5 -57.5z" />
    <glyph glyph-name="florin" unicode="&#x192;" horiz-adv-x="500" 
d="M490 610q0 -22 -13.5 -34.5t-33.5 -12.5q-13 0 -22 7q-15 11 -15 27q0 10 8 25q5 9 5 12q0 13 -22 13q-44 0 -65 -70q-15 -50 -26 -170h126l-10 -31h-120q-4 -25 -16 -123q-15 -117 -24 -165q-26 -140 -64 -204q-43 -73 -112 -73q-37 0 -58 20t-21 50q0 19 12 31.5
t34 12.5q36 0 36 -37q0 -11 -7.5 -24t-7.5 -16q0 -13 19 -13q39 0 61 56q17 43 23 118l15 172q0 41 7 90q3 18 16 90l2 15h-111l10 31h107q13 94 39 153q51 116 145 116q36 0 59.5 -21t23.5 -45z" />
    <glyph glyph-name="quotedblbase" unicode="&#x201e;" horiz-adv-x="424" 
d="M388 51q0 -50 -39 -109q-28 -42 -55 -64h-65q21 24 45 53q36 43 43 64q-45 14 -53 23q-16 19 -16 56q0 24 20.5 39.5t45.5 15.5q29 0 51.5 -20.5t22.5 -57.5zM188 51q0 -50 -39 -109q-28 -42 -55 -64h-65q21 24 45 53q36 43 43 64q-45 14 -53 23q-16 19 -16 56
q0 24 20.5 39.5t45.5 15.5q29 0 51.5 -20.5t22.5 -57.5z" />
    <glyph glyph-name="ellipsis" unicode="&#x2026;" horiz-adv-x="644" 
d="M613 63q0 -30 -21.5 -51.5t-51.5 -21.5t-51.5 21.5t-21.5 51.5t21.5 51.5t51.5 21.5t51.5 -21.5t21.5 -51.5zM393 63q0 -30 -21.5 -51.5t-51.5 -21.5t-51.5 21.5t-21.5 51.5t21.5 51.5t51.5 21.5t51.5 -21.5t21.5 -51.5zM173 63q0 -30 -21.5 -51.5t-51.5 -21.5
t-51.5 21.5t-21.5 51.5t21.5 51.5t51.5 21.5t51.5 -21.5t21.5 -51.5z" />
    <glyph glyph-name="dagger" unicode="&#x2020;" horiz-adv-x="500" 
d="M442 448q0 -18 -8 -29q-11 -15 -33 -15q-7 0 -70 23q-30 11 -70 11q0 -59 5 -93q9 -64 37 -92q-15 -31 -27.5 -111.5t-12.5 -167.5l-1 -123h-21l-1 123q0 88 -13 165t-29 114q27 28 37 91q5 33 5 94q-49 0 -98 -23q-23 -11 -42 -11q-22 0 -31.5 12t-9.5 32
q0 22 12.5 32.5t28.5 10.5q8 0 70 -23q32 -12 70 -12q0 70 -18 114t-18 59q0 20 13.5 33.5t33.5 13.5q18 0 32 -14t14 -33q0 -18 -11 -43q-25 -57 -25 -130q49 0 86 17.5t54 17.5q16 0 28.5 -10.5t12.5 -32.5z" />
    <glyph glyph-name="daggerdbl" unicode="&#x2021;" horiz-adv-x="500" 
d="M442 448q0 -18 -8 -29q-11 -15 -33 -15q-7 0 -70 23q-30 11 -70 11v-22q0 -51 5 -78q9 -48 35 -78q-26 -28 -33.5 -69t-7.5 -89v-17q49 0 98 23q23 11 42 11q22 0 33 -14q8 -10 8 -30q0 -22 -12.5 -32.5t-28.5 -10.5q-8 0 -70 23q-32 12 -70 12q0 -70 18 -114t18 -59
q0 -19 -14 -33t-32 -14q-19 0 -33 14t-14 33q0 18 11 43q25 57 25 130q-49 0 -86 -17.5t-54 -17.5q-16 0 -27 9q-14 12 -14 34q0 18 9.5 31t31.5 13q7 0 70 -23q30 -11 70 -11v18q0 55 -5 83q-9 51 -35 74q20 26 30.5 69t10.5 109q-49 0 -98 -23q-23 -11 -42 -11
q-22 0 -31.5 12t-9.5 32q0 22 12.5 32.5t28.5 10.5q8 0 70 -23q32 -12 70 -12q0 70 -18 114t-18 59q0 20 13.5 33.5t33.5 13.5q18 0 32 -14t14 -33q0 -18 -11 -43q-25 -57 -25 -130q49 0 86 17.5t54 17.5q16 0 28.5 -10.5t12.5 -32.5z" />
    <glyph glyph-name="circumflex" unicode="&#x2c6;" horiz-adv-x="498" 
d="M444 598q-45 0 -95.5 19.5t-88.5 51.5q-38 -28 -93 -49.5t-103 -21.5l196 187z" />
    <glyph glyph-name="perthousand" unicode="&#x2030;" horiz-adv-x="1362" 
d="M1311 224q0 -94 -43 -162q-49 -78 -132 -78q-94 0 -145 73q-44 63 -44 150q0 91 41 161q50 86 134 86q89 0 142 -76q47 -67 47 -154zM901 224q0 -94 -43 -162q-49 -78 -132 -78q-94 0 -145 73q-44 63 -44 150q0 91 41 161q50 86 134 86q89 0 142 -76q47 -67 47 -154z
M691 744l-366 -742h-69l362 742h73zM406 532q0 -93 -43 -161q-49 -78 -133 -78q-94 0 -145 73q-44 63 -44 150q0 91 41 161q50 86 135 86q88 0 142 -76q47 -67 47 -155zM1230 214q0 66 -20 116q-28 71 -86 71q-52 0 -79 -68q-20 -51 -20 -119q0 -61 29 -114q33 -61 82 -61
q56 0 79 64q15 42 15 111zM820 214q0 66 -20 116q-28 71 -86 71q-52 0 -79 -68q-20 -51 -20 -119q0 -61 29 -114q33 -61 82 -61q56 0 79 64q15 42 15 111zM325 523q0 66 -20 116q-28 71 -86 71q-52 0 -79 -68q-20 -51 -20 -119q0 -60 29 -114q33 -61 81 -61q57 0 80 64
q15 42 15 111z" />
    <glyph glyph-name="Scaron" unicode="&#x160;" horiz-adv-x="599" 
d="M486 984l-184 -187l-196 187q49 0 102.5 -21t93.5 -50q38 32 87.5 51.5t96.5 19.5zM565 212q0 -109 -95 -174q-89 -61 -226 -61q-43 0 -91 8t-105 22l-27 143q49 -44 111.5 -67t120.5 -23q67 0 119 33t52 84q0 74 -120 132q-91 45 -182 91q-92 61 -92 151q0 100 83 156
q73 49 182 49q55 0 112.5 -5.5t83.5 -17.5v-125q-33 28 -86 46.5t-105 18.5q-54 0 -95 -27t-41 -70q0 -55 80 -104q22 -13 171 -83q58 -26 97 -65q53 -53 53 -112z" />
    <glyph glyph-name="guilsinglleft" unicode="&#x2039;" horiz-adv-x="668" 
d="M615 -32l-557 265v69l557 251v-74l-477 -212l477 -230v-69z" />
    <glyph glyph-name="OE" unicode="&#x152;" horiz-adv-x="1232" 
d="M1215 152l-62 -150h-461q19 18 29.5 36.5t14.5 35.5q-50 -46 -115 -71.5t-146 -25.5q-202 0 -321 109q-115 105 -115 271q0 147 92 259q115 140 325 140q165 0 278 -84q-4 19 -13.5 35t-28.5 30h364q25 0 33 1t20 6v-140q-21 26 -63 36t-100 10h-95v-205h106h13
q30 0 44 1.5t26 7.5v-125q-12 19 -40.5 27t-67.5 8h-81v-265q52 -8 78 -11q51 -7 81 -7q55 0 103 15q56 18 102 56zM737 357q0 122 -79 217q-86 103 -213 103q-101 0 -179 -85q-84 -92 -84 -228q0 -128 89 -215q86 -84 204 -84t190 83.5t72 208.5z" />
    <glyph glyph-name="quoteleft" unicode="&#x2018;" horiz-adv-x="207" 
d="M173 594q0 -24 -17.5 -41.5t-49.5 -17.5q-37 0 -54 18t-17 51q0 61 36 113q33 48 63 48q16 0 25 -12q-23 -30 -35 -46q-23 -31 -23 -41q0 -9 14 -9q26 0 42 -20t16 -43z" />
    <glyph glyph-name="quoteright" unicode="&#x2019;" horiz-adv-x="207" 
d="M168 700q0 -61 -34.5 -111t-64.5 -50q-6 0 -14 3.5t-11 8.5q23 30 35 46q22 30 22 41q0 9 -13 9q-28 0 -43 19.5t-15 43.5q0 25 17 42.5t50 17.5q36 0 53.5 -18.5t17.5 -51.5z" />
    <glyph glyph-name="quotedblleft" unicode="&#x201c;" horiz-adv-x="380" 
d="M336 594q0 -24 -16.5 -41.5t-49.5 -17.5q-72 0 -72 69q0 61 36 113q33 48 63 48q6 0 14.5 -3.5t11.5 -8.5l-36 -46q-22 -30 -22 -41q0 -9 14 -9q27 0 42 -19.5t15 -43.5zM173 594q0 -24 -17.5 -41.5t-49.5 -17.5q-37 0 -54 18t-17 51q0 61 36 113q33 48 63 48
q16 0 25 -12q-23 -30 -35 -46q-23 -31 -23 -41q0 -9 14 -9q26 0 42 -20t16 -43z" />
    <glyph glyph-name="quotedblright" unicode="&#x201d;" horiz-adv-x="392" 
d="M353 700q0 -60 -35.5 -110.5t-64.5 -50.5q-16 0 -25 12l36 46q22 30 22 41q0 9 -14 9q-26 0 -42 20t-16 43q0 25 17 42.5t50 17.5q37 0 54.5 -18.5t17.5 -51.5zM180 700q0 -61 -34.5 -111t-64.5 -50q-6 0 -14.5 3.5t-11.5 8.5l36 46q22 30 22 41q0 9 -14 9q-26 0 -42 20
t-16 43q0 25 17 42.5t50 17.5q37 0 54.5 -18.5t17.5 -51.5z" />
    <glyph glyph-name="bullet" unicode="&#x2022;" horiz-adv-x="350" 
d="M310 331q0 -56 -39.5 -95.5t-95.5 -39.5q-57 0 -96 39t-39 96q0 56 38.5 95.5t96.5 39.5q57 0 96 -39t39 -96z" />
    <glyph glyph-name="endash" unicode="&#x2013;" horiz-adv-x="645" 
d="M642 329l-62 -62q-12 -17 -25.5 -21t-43.5 -4h-404q-24 0 -46 -3t-53 -15l-9 9l72 69q15 15 26 16.5t29 1.5h427q19 0 32.5 2.5t47.5 16.5z" />
    <glyph glyph-name="emdash" unicode="&#x2014;" horiz-adv-x="1002" 
d="M1002 329l-62 -62q-12 -17 -25.5 -21t-43.5 -4h-764q-24 0 -46 -3t-53 -15l-9 9l72 69q15 15 26 16.5t29 1.5h787q19 0 32.5 2.5t47.5 16.5z" />
    <glyph glyph-name="tilde" unicode="&#x2dc;" horiz-adv-x="552" 
d="M475 740q-27 -81 -39 -99q-32 -48 -97 -48q-25 0 -83.5 12.5t-82.5 12.5q-25 0 -50 -6.5t-56 -21.5q25 67 49.5 92.5t68.5 25.5q7 0 86 -14q39 -7 71 -7q41 0 77.5 13.5t55.5 39.5z" />
    <glyph glyph-name="trademark" unicode="&#x2122;" horiz-adv-x="972" 
d="M926 320h-130q16 5 22 20t6 31v12l-33 275l-136 -339q-16 0 -36 27q-9 12 -19 32l-121 280l-39 -275q0 -23 5.5 -36t23.5 -27h-112q16 9 25 29t9 34l40 280l1 24q0 17 -8 25.5t-13 12.5h106l133 -298l110 298h113q-13 -4 -20 -15t-7 -23l3 -9l39 -295q5 -26 11 -37
q10 -20 27 -26zM358 731l-25 -77q-3 11 -18.5 18t-33.5 7h-60v-316q0 -16 12 -27q5 -5 24 -16h-127q29 14 29 43v316h-47q-52 0 -80 -25l18 77q6 -6 33 -6h241q8 0 14.5 0.5t19.5 5.5z" />
    <glyph glyph-name="scaron" unicode="&#x161;" horiz-adv-x="507" 
d="M444 762l-184 -187l-196 187q49 0 102.5 -21t93.5 -50q38 32 87.5 51.5t96.5 19.5zM479 166q0 -86 -81 -140q-74 -49 -174 -49q-42 0 -85 12.5t-65 28.5l-37 109q44 -31 103 -52.5t111 -21.5q46 0 85.5 25t39.5 60q0 30 -59 56q-29 13 -70 27q-87 30 -124 56
q-58 41 -58 105q0 81 71 121q57 32 145 32q34 0 67 -6.5t62 -12.5v-97q-34 16 -73.5 26.5t-73.5 10.5q-29 0 -55 -12q-35 -16 -35 -45q0 -27 59 -53q24 -11 72 -28q69 -29 92 -42q83 -47 83 -110z" />
    <glyph glyph-name="guilsinglright" unicode="&#x203a;" horiz-adv-x="668" 
d="M624 233l-576 -256v69l489 221l-489 212v81l576 -267v-60z" />
    <glyph glyph-name="oe" unicode="&#x153;" horiz-adv-x="1086" 
d="M1047 127l-51 -109q-39 -17 -83 -29t-81 -12q-80 0 -152.5 32.5t-119.5 89.5q-40 -57 -102.5 -89.5t-139.5 -32.5q-125 0 -206 86q-77 82 -77 195q0 117 87 197t212 80q72 0 130 -29.5t95 -80.5q40 50 93 78q62 32 139 32q112 0 182 -66q74 -70 74 -193h-431
q0 -93 71.5 -154.5t184.5 -61.5q48 0 85 12q48 16 90 55zM925 348q0 34 -49 70t-94 36q-49 0 -90 -26q-47 -30 -60 -80h293zM498 251q0 78 -39 135q-46 68 -127 68q-84 0 -135 -58q-47 -54 -47 -131q0 -80 45 -141q51 -69 132 -69q80 0 128 65q43 58 43 131z" />
    <glyph glyph-name="Ydieresis" unicode="&#x178;" horiz-adv-x="726" 
d="M712 737l-293 -414v-226q0 -36 21 -62q14 -18 42 -35h-231q55 24 55 88v235l-202 329q-16 27 -36.5 45t-58.5 40h104q37 0 60.5 -10.5t54.5 -55.5l148 -254l149 219q10 14 10 37t-13 42t-31 22h221zM536 862q0 -36 -22 -56t-52 -20q-28 0 -47.5 21.5t-19.5 56.5
q0 33 21 52t50 19t49.5 -18.5t20.5 -54.5zM328 869q0 -36 -22 -56t-52 -20q-28 0 -47 22t-19 56q0 33 21 52t50 19q30 0 49.5 -18t19.5 -55z" />
    <glyph glyph-name="nonbreakingspace" unicode="&#xa0;" horiz-adv-x="500" 
 />
    <glyph glyph-name="exclamdown" unicode="&#xa1;" horiz-adv-x="276" 
d="M194 445q0 -30 -24.5 -48.5t-54.5 -18.5q-31 0 -51 18q-23 21 -23 58v7q0 22 19 40t44 24q35 0 59 -16.5t31 -54.5v-9zM244 -247h-193l27 567h79l27 -486q0 -24 10.5 -41t49.5 -40z" />
    <glyph glyph-name="cent" unicode="&#xa2;" horiz-adv-x="530" 
d="M488 184l-27 -124q-18 -6 -46.5 -11t-59.5 -5v-109h-62v109q-79 0 -150 49q-99 68 -99 197q0 109 68.5 185.5t180.5 89.5v106h62v-106q27 0 50 -3t47 -14v-106q-42 42 -97 42v-371q40 11 65 22q44 20 68 49zM293 122v362q-66 -13 -101 -50q-42 -44 -42 -125
q0 -60 35 -113q40 -61 108 -74z" />
    <glyph glyph-name="sterling" unicode="&#xa3;" horiz-adv-x="565" 
d="M521 0q-28 -7 -60.5 -12.5t-57.5 -5.5q-32 0 -68.5 9.5t-69.5 29.5q-22 -17 -56.5 -28t-67.5 -11q-47 0 -79 19t-32 57q0 49 34 71.5t86 22.5q46 0 97 -14q6 24 6 51q0 47 -17 93.5t-36 65.5h-115v62h62q-53 76 -53 161q0 77 50 124q59 56 176 56q41 0 80 -7.5t59 -26.5
l9 -118q-31 27 -73 42.5t-82 15.5q-43 0 -74.5 -22t-31.5 -61q0 -14 56 -105q18 -30 37 -59h140v-62h-90q11 -29 19.5 -66t8.5 -68q0 -30 -8.5 -58t-28.5 -52q35 -13 44.5 -16t24.5 -3q25 0 54.5 10t56.5 27v-122zM200 67q-10 6 -33 13.5t-40 7.5q-35 0 -35 -30
q5 -19 17 -23.5t38 -4.5q20 6 33 16.5t20 20.5z" />
    <glyph glyph-name="currency" unicode="&#xa4;" horiz-adv-x="565" 
d="M523 104l-71 -79l-40 46q-20 -16 -55.5 -27.5t-73.5 -11.5q-32 0 -62 10.5t-50 28.5l-40 -46l-71 79l41 39q-41 49 -41 110t41 125l-50 39l80 78l40 -48q21 20 48 29.5t67 9.5q38 0 69 -10.5t51 -28.5l46 39l71 -62l-39 -46q16 -30 25 -63.5t9 -58.5q0 -30 -9 -58.5
t-25 -54.5zM415 265q0 58 -35.5 89t-86.5 31h-10q-50 0 -82 -25q-40 -31 -40 -93q0 -65 41 -101q35 -30 84 -30q45 0 85 35q44 39 44 94z" />
    <glyph glyph-name="yen" unicode="&#xa5;" horiz-adv-x="714" 
d="M698 753l-186 -274h142v-69h-177l-53 -71h230v-72h-230v-168q0 -31 17 -55q14 -20 45 -42h-239q30 13 44 29q18 20 18 50v186h-240v72h240l-44 71h-196v69h150l-134 205q-12 20 -32.5 38.5t-45.5 30.5h124q36 0 56 -16q14 -11 32 -43l161 -268l150 224q11 22 11 46
q0 21 -9.5 35t-26.5 22h193z" />
    <glyph glyph-name="brokenbar" unicode="&#xa6;" horiz-adv-x="200" 
d="M133 400h-66v276h66v-276zM133 -14h-66v276h66v-276z" />
    <glyph glyph-name="section" unicode="&#xa7;" horiz-adv-x="541" 
d="M495 323q0 -45 -21 -84t-55 -57q19 -23 29.5 -52t10.5 -63q0 -70 -51 -121q-61 -61 -168 -61q-73 0 -108.5 9.5t-66.5 29.5v115q86 -62 159 -62q56 0 90 20t34 63q0 50 -58 85q-22 13 -69 35q-76 35 -104 59q-52 44 -52 109q0 56 20 90.5t72 73.5q-42 29 -42 87
q0 59 46 101q54 49 152 49q47 0 82 -3.5t59 -19.5v-106q-30 30 -63 43.5t-66 13.5q-41 0 -74.5 -20.5t-33.5 -45.5q0 -23 16.5 -39.5t56.5 -32.5l99 -53q55 -28 82 -75q24 -41 24 -88zM396 302q0 26 -16 48q-20 28 -67 56l-106 57q-16 -23 -24 -39q-12 -24 -12 -44t10 -38.5
t36 -37.5l159 -90q9 34 14.5 54t5.5 34z" />
    <glyph glyph-name="dieresis" unicode="&#xa8;" horiz-adv-x="504" 
d="M428 712q0 -36 -22 -56t-52 -20q-28 0 -47.5 21.5t-19.5 56.5q0 33 21 52t50 19t49.5 -18.5t20.5 -54.5zM220 719q0 -36 -22 -56t-52 -20q-28 0 -47 22t-19 56q0 33 21 52t50 19q30 0 49.5 -18t19.5 -55z" />
    <glyph glyph-name="copyright" unicode="&#xa9;" horiz-adv-x="876" 
d="M832 373q0 -154 -105 -267q-112 -120 -285 -120q-149 0 -262 101q-129 115 -129 307q0 132 88 242q109 136 294 136q148 0 265 -99q134 -114 134 -300zM770 389q0 129 -93 222q-99 99 -251 99q-106 0 -198 -77q-113 -95 -113 -251q0 -128 81 -224q95 -112 256 -112
q118 0 212 88q106 100 106 255zM620 228l-30 -83l-122 -16q-103 0 -174 63q-77 68 -77 177q0 105 44 163q58 76 191 76q55 0 133 -16v-83q-36 21 -72.5 30t-63.5 9q-73 0 -117 -54q-39 -48 -39 -116q0 -75 45 -130q50 -61 127 -61q30 0 58 7t97 34z" />
    <glyph glyph-name="ordfeminine" unicode="&#xaa;" horiz-adv-x="380" 
d="M355 482l-32 -44q-90 0 -90 74v99q-6 -4 -77 -23q-52 -14 -52 -51q0 -26 18 -42t46 -16q11 0 25 5q19 8 28 11l-34 -50q-6 0 -18.5 -3.5t-16.5 -3.5q-51 0 -85.5 27.5t-34.5 64.5q0 54 46 77q24 12 93 24q29 5 46.5 16.5t17.5 23.5q0 17 -23 29t-44 12q-22 0 -46.5 -7.5
t-45.5 -13.5l51 67q8 0 24.5 2.5t19.5 2.5q51 0 83 -20q43 -27 43 -86v-111q0 -35 10.5 -49.5t47.5 -14.5zM346 332h-314v62h314v-62z" />
    <glyph glyph-name="guillemotleft" unicode="&#xab;" horiz-adv-x="369" 
d="M334 99h-44l-115 177l115 185h44l-81 -185zM194 99h-47l-115 177l115 185h47l-83 -185z" />
    <glyph glyph-name="logicalnot" unicode="&#xac;" horiz-adv-x="484" 
d="M454 55h-69v256h-348v71h417v-327z" />
    <glyph glyph-name="minus" unicode="&#xad;" horiz-adv-x="438" 
d="M412 329l-62 -62q-12 -17 -25.5 -21t-43.5 -4h-134q-24 0 -46 -3t-53 -15l-9 9l72 69q15 15 26 16.5t29 1.5h157q19 0 32.5 2.5t47.5 16.5z" />
    <glyph glyph-name="registered" unicode="&#xae;" horiz-adv-x="864" 
d="M820 373q0 -155 -104 -267q-111 -120 -285 -120q-150 0 -263 101q-129 115 -129 307q0 132 88 242q109 136 295 136q148 0 264 -99q134 -114 134 -300zM758 389q0 129 -93 222q-99 99 -250 99q-106 0 -198 -77q-113 -95 -113 -251q0 -128 81 -224q94 -112 255 -112
q120 0 213 88q105 99 105 255zM652 150h-74q-26 0 -39 5q-21 8 -46 36l-140 189q64 24 89 46q30 26 30 65q0 31 -23 49t-64 18h-20t-24 -3v-345q0 -46 35 -60h-143q16 1 24 15.5t8 34.5v337q0 40 -10 55q-4 6 -22 16h152q74 0 120 -27.5t46 -85.5q0 -49 -37 -85
q-32 -31 -74 -41q50 -63 101 -126q58 -66 111 -93z" />
    <glyph glyph-name="macron" unicode="&#xaf;" horiz-adv-x="599" 
d="M576 772l-88 -62q-21 -22 -41.5 -24t-57.5 -2h-189q-34 0 -65.5 -3t-76.5 -15l-12 9l101 69q17 13 18 13q16 6 61 6h223q37 0 64 5q34 9 52 13z" />
    <glyph glyph-name="degree" unicode="&#xb0;" horiz-adv-x="400" 
d="M343 533q0 -60 -41.5 -101.5t-101.5 -41.5t-101.5 41.5t-41.5 101.5t41.5 101.5t101.5 41.5t101.5 -41.5t41.5 -101.5zM304 533q0 44 -30.5 76.5t-73.5 32.5q-44 0 -74 -32t-30 -77q0 -44 30.5 -76.5t73.5 -32.5q44 0 74 32t30 77z" />
    <glyph glyph-name="plusminus" unicode="&#xb1;" horiz-adv-x="588" 
d="M553 327h-221v-205h-72v205h-221v55h221v215h72v-215h221v-55zM553 0h-514v55h514v-55z" />
    <glyph glyph-name="twosuperior" unicode="&#xb2;" horiz-adv-x="449" 
d="M417 339l-39 -90h-343l-5 4l203 295q15 19 24.5 42.5t9.5 40.5q0 67 -80 67q-61 0 -139 -48l49 97q49 18 99 18q65 0 114 -33t49 -85q0 -20 -5.5 -37.5t-19.5 -38.5l-173 -255q22 -7 45 -10.5t50 -3.5q50 0 93.5 10t67.5 27z" />
    <glyph glyph-name="threesuperior" unicode="&#xb3;" horiz-adv-x="415" 
d="M385 401q0 -79 -74 -126q-63 -40 -145 -40l-104 7l-37 92q31 -18 68.5 -29.5t72.5 -11.5q50 0 84 24q40 28 45 79q0 42 -21 65q-30 32 -106 32h-23t-30 -2v62l49 -5q39 0 71 20.5t32 51.5q0 35 -25.5 57.5t-68.5 22.5q-27 0 -60.5 -11t-61.5 -28l37 86q5 4 34.5 10
t59.5 6q70 0 112 -23q56 -31 56 -99q0 -37 -20 -63t-65 -43q70 -21 97 -56q23 -31 23 -78z" />
    <glyph glyph-name="acute" unicode="&#xb4;" horiz-adv-x="468" 
d="M416 615l-327 -96l256 177z" />
    <glyph glyph-name="mu" unicode="&#xb5;" horiz-adv-x="622" 
d="M601 2h-159v79q-7 -42 -54 -73t-102 -31q-51 0 -92 21v-189h-106v610q0 44 -16 69q-11 18 -40 37q11 0 48 -5q15 -2 26 -2q44 0 88 17v-321q0 -62 34.5 -103.5t82.5 -41.5q43 0 85 37q46 41 46 90v230q0 44 -10 63.5t-33 35.5q18 -3 36.5 -5t25.5 -2q56 0 87 17v-427
q0 -47 17 -73q11 -17 36 -33z" />
    <glyph glyph-name="paragraph" unicode="&#xb6;" horiz-adv-x="565" 
d="M509 0h-122v671h-97v-671h-129q19 0 31.5 14.5t17.5 47.5v318q-62 0 -117 41q-68 51 -68 134q0 82 51 127q60 53 189 53h244q-26 -15 -35 -53.5t-9 -98.5v-482q0 -45 11.5 -70.5t32.5 -30.5z" />
    <glyph glyph-name="periodcentered" unicode="&#xb7;" horiz-adv-x="369" 
d="M327 249q0 -49 -37.5 -85.5t-95.5 -36.5t-93.5 35.5t-35.5 81.5q0 47 34.5 82.5t91.5 35.5q59 0 97.5 -33.5t38.5 -79.5z" />
    <glyph glyph-name="periodcentered" unicode="&#x2219;" horiz-adv-x="369" 
d="M327 249q0 -49 -37.5 -85.5t-95.5 -36.5t-93.5 35.5t-35.5 81.5q0 47 34.5 82.5t91.5 35.5q59 0 97.5 -33.5t38.5 -79.5z" />
    <glyph glyph-name="cedilla" unicode="&#xb8;" horiz-adv-x="454" 
d="M341 -115q0 -34 -32.5 -62t-80.5 -28q-25 0 -54 9.5t-59 29.5l37 53q23 -20 43 -29.5t35 -9.5t25 8t10 20q0 15 -18 22.5t-44 7.5l-35 34l23 55l55 -1l-16 -45l19 3q46 0 69 -19t23 -48z" />
    <glyph glyph-name="onesuperior" unicode="&#xb9;" horiz-adv-x="242" 
d="M212 276h-150q39 29 39 67v288h-83q61 24 101 58q10 8 61 62v-405q0 -38 32 -70z" />
    <glyph glyph-name="ordmasculine" unicode="&#xba;" horiz-adv-x="403" 
d="M369 597q0 -65 -46 -111t-118 -46q-70 0 -114.5 45.5t-44.5 108.5q0 65 49 110t117 45q69 0 113 -45t44 -107zM371 336h-332v63h332v-63zM306 590q0 43 -23 76q-26 37 -71 37q-48 0 -74.5 -30t-26.5 -74q0 -45 26.5 -81t72.5 -36q45 0 72 35q24 31 24 73z" />
    <glyph glyph-name="guillemotright" unicode="&#xbb;" horiz-adv-x="392" 
d="M353 283l-125 -184h-34l62 184l-62 178h34zM203 283l-125 -184h-37l65 184l-65 178h37z" />
    <glyph glyph-name="onequarter" unicode="&#xbc;" horiz-adv-x="680" 
d="M578 737l-419 -737h-76l415 737h80zM650 154l-32 -71h-49v-35q0 -28 30 -48h-124q30 11 30 46v37h-210l-5 5l192 320h87v-277q24 0 43.5 6t37.5 17zM205 318h-131q34 24 34 60v256h-73q54 21 89 51q12 10 53 55v-362q0 -32 28 -60zM505 131v228l-127 -223z" />
    <glyph glyph-name="onehalf" unicode="&#xbd;" horiz-adv-x="772" 
d="M733 74l-35 -74h-283l-3 2l166 242q14 17 21 36t7 36q0 53 -67 53q-52 0 -115 -40l41 81q17 6 40.5 9t42.5 3q55 0 94.5 -26t39.5 -69q0 -18 -4 -32t-17 -30l-143 -212q45 -12 79 -12q40 0 77 9t59 24zM578 737l-419 -737h-76l415 737h80zM205 318h-131q34 24 34 60v256
h-73q54 21 89 51q12 10 53 55v-362q0 -32 28 -60z" />
    <glyph glyph-name="threequarters" unicode="&#xbe;" horiz-adv-x="783" 
d="M671 737l-420 -737h-76l415 737h81zM742 154l-32 -71h-49v-35q0 -27 30 -48h-124q15 5 22.5 18t7.5 28v37h-210l-5 5l192 320h87v-277q25 0 44 6t37 17zM334 445q0 -65 -60 -103q-52 -33 -120 -33l-85 7l-30 76q53 -35 115 -35q42 0 71 19q35 23 35 64q0 35 -17 54
q-24 27 -86 27h-21.5t-22.5 -3v51q7 -1 18 -1.5t21 -0.5q34 0 59.5 16t25.5 41q0 28 -21.5 47.5t-56.5 19.5q-22 0 -48.5 -9t-50.5 -23l30 69q4 5 27.5 9.5t50.5 4.5q56 0 91 -19q45 -25 45 -80q0 -30 -16 -52t-53 -36q58 -17 80 -46q19 -25 19 -64zM597 131v228l-127 -223z
" />
    <glyph glyph-name="questiondown" unicode="&#xbf;" horiz-adv-x="518" 
d="M376 488q0 -33 -19.5 -47.5t-56.5 -14.5q-76 0 -76 62q0 34 20.5 55.5t55.5 21.5q34 0 55 -21t21 -56zM491 -71l-81 -116q-44 -16 -104 -16h-4q-98 0 -172 51q-82 57 -82 145q0 72 57 140q1 1 107 105q58 57 58 98q0 10 -3 19t-9 18l90 7q11 -22 11 -46q0 -61 -50 -117
q-46 -45 -92 -89q-51 -53 -51 -103q0 -57 45 -103t109 -46q42 0 89 16q34 12 82 37z" />
    <glyph glyph-name="Agrave" unicode="&#xc0;" horiz-adv-x="841" 
d="M823 0h-240q21 11 31 25t10 28q0 12 -5 26q-8 18 -11 27l-67 175h-274l-71 -193q-7 -20 -7 -30q0 -18 14 -33q20 -16 30 -25h-221q40 30 66 66q20 28 30 58l210 535q7 17 7 30q0 14 -9.5 27.5t-22.5 20.5h175l265 -631q13 -35 38 -60q34 -29 52 -46zM505 359l-106 275
l-106 -275h212zM425 797l-327 96l71 81z" />
    <glyph glyph-name="Aacute" unicode="&#xc1;" horiz-adv-x="841" 
d="M823 0h-240q21 11 31 25t10 28q0 12 -5 26q-8 18 -11 27l-67 175h-274l-71 -193q-7 -20 -7 -30q0 -18 14 -33q20 -16 30 -25h-221q40 30 66 66q20 28 30 58l210 535q7 17 7 30q0 14 -9.5 27.5t-22.5 20.5h175l265 -631q13 -35 38 -60q34 -29 52 -46zM505 359l-106 275
l-106 -275h212zM656 879l-327 -96l256 177z" />
    <glyph glyph-name="Acircumflex" unicode="&#xc2;" horiz-adv-x="841" 
d="M823 0h-240q21 11 31 25t10 28q0 12 -5 26q-8 18 -11 27l-67 175h-274l-71 -193q-7 -20 -7 -30q0 -18 14 -33q20 -16 30 -25h-221q40 30 66 66q20 28 30 58l210 535q7 17 7 30q0 14 -9.5 27.5t-22.5 20.5h175l265 -631q13 -35 38 -60q34 -29 52 -46zM505 359l-106 275
l-106 -275h212zM592 774q-45 0 -95.5 19.5t-88.5 51.5q-38 -28 -93 -49.5t-103 -21.5l196 187z" />
    <glyph glyph-name="Atilde" unicode="&#xc3;" horiz-adv-x="841" 
d="M823 0h-240q21 11 31 25t10 28q0 12 -5 26q-8 18 -11 27l-67 175h-274l-71 -193q-7 -20 -7 -30q0 -18 14 -33q20 -16 30 -25h-221q40 30 66 66q20 28 30 58l210 535q7 17 7 30q0 14 -9.5 27.5t-22.5 20.5h175l265 -631q13 -35 38 -60q34 -29 52 -46zM505 359l-106 275
l-106 -275h212zM607 940q-27 -81 -39 -99q-32 -48 -97 -48q-25 0 -83.5 12.5t-82.5 12.5q-25 0 -50 -6.5t-56 -21.5q25 67 49.5 92.5t68.5 25.5q7 0 86 -14q39 -7 71 -7q41 0 77.5 13.5t55.5 39.5z" />
    <glyph glyph-name="Adieresis" unicode="&#xc4;" horiz-adv-x="841" 
d="M823 0h-240q21 11 31 25t10 28q0 12 -5 26q-8 18 -11 27l-67 175h-274l-71 -193q-7 -20 -7 -30q0 -18 14 -33q20 -16 30 -25h-221q40 30 66 66q20 28 30 58l210 535q7 17 7 30q0 14 -9.5 27.5t-22.5 20.5h175l265 -631q13 -35 38 -60q34 -29 52 -46zM505 359l-106 275
l-106 -275h212zM568 860q0 -36 -22 -56t-52 -20q-28 0 -47.5 21.5t-19.5 56.5q0 33 21 52t50 19t49.5 -18.5t20.5 -54.5zM360 867q0 -36 -22 -56t-52 -20q-28 0 -47 22t-19 56q0 33 21 52t50 19q30 0 49.5 -18t19.5 -55z" />
    <glyph glyph-name="Aring" unicode="&#xc5;" horiz-adv-x="841" 
d="M524 880q0 -39 -36.5 -71.5t-78.5 -32.5q-40 0 -75 32t-35 70q0 37 35 68t73 31q39 0 78 -29.5t39 -67.5zM469 878q0 25 -15.5 42.5t-41.5 17.5q-24 0 -41 -20t-17 -42q0 -21 16.5 -39.5t38.5 -18.5t41 18t19 42zM823 0h-240q21 11 31 25t10 28q0 12 -5 26q-8 18 -11 27
l-67 175h-274l-71 -193q-7 -20 -7 -30q0 -18 14 -33q20 -16 30 -25h-221q40 30 66 66q20 28 30 58l210 535q7 17 7 30q0 14 -9.5 27.5t-22.5 20.5h175l265 -631q13 -35 38 -60q34 -29 52 -46zM505 359l-106 275l-106 -275h212z" />
    <glyph glyph-name="AE" unicode="&#xc6;" horiz-adv-x="899" 
d="M876 152l-63 -150h-460q25 24 35.5 47.5t10.5 49.5v182h-132l-71 -193q-7 -20 -7 -30q0 -18 14 -33q20 -16 30 -25h-221q40 30 66 66q20 28 30 58l210 535q7 17 7 30q0 14 -9.5 27.5t-22.5 20.5h424q12 0 24.5 0.5t28.5 6.5v-140q-22 26 -63.5 36t-100.5 10h-94v-205h106
h13q30 0 43 1.5t26 7.5v-125q-12 19 -40.5 27t-67.5 8h-80v-265q38 -6 83 -12t76 -6q55 0 106 16t99 55zM399 359v275l-106 -275h106z" />
    <glyph glyph-name="Ccedilla" unicode="&#xc7;" horiz-adv-x="703" 
d="M680 150l-46 -134q-68 -19 -97 -26q-58 -13 -99 -13q-164 0 -286 106q-131 114 -131 286q0 168 77 265q97 122 310 122q53 0 107 -6t109 -20v-133q-59 36 -123 51q-47 11 -98 11q-116 0 -186 -86q-63 -77 -63 -188q0 -118 74 -208q81 -99 207 -99q59 0 128 23
q46 15 117 49zM557 -121q0 -34 -32.5 -62t-80.5 -28q-25 0 -54 9.5t-59 29.5l37 53q23 -20 43 -29.5t35 -9.5t25 8t10 20q0 15 -18 22.5t-44 7.5l-35 34l23 55l55 -1l-16 -45l19 3q46 0 69 -19t23 -48z" />
    <glyph glyph-name="Egrave" unicode="&#xc8;" horiz-adv-x="576" 
d="M555 152l-62 -150h-461q27 25 36.5 47.5t9.5 49.5v514q0 47 -5 66q-9 34 -41 58h364q25 0 33 1t20 6v-140q-21 26 -63 36t-100 10h-95v-205h106h13q30 0 44 1.5t26 7.5v-125q-12 19 -40.5 27t-67.5 8h-81v-265q52 -8 78 -11q51 -7 81 -7q55 0 103 15q56 18 102 56z
M373 801l-327 96l71 81z" />
    <glyph glyph-name="Eacute" unicode="&#xc9;" horiz-adv-x="576" 
d="M555 152l-62 -150h-461q27 25 36.5 47.5t9.5 49.5v514q0 47 -5 66q-9 34 -41 58h364q25 0 33 1t20 6v-140q-21 26 -63 36t-100 10h-95v-205h106h13q30 0 44 1.5t26 7.5v-125q-12 19 -40.5 27t-67.5 8h-81v-265q52 -8 78 -11q51 -7 81 -7q55 0 103 15q56 18 102 56z
M484 891l-327 -96l256 177z" />
    <glyph glyph-name="Ecircumflex" unicode="&#xca;" horiz-adv-x="576" 
d="M555 152l-62 -150h-461q27 25 36.5 47.5t9.5 49.5v514q0 47 -5 66q-9 34 -41 58h364q25 0 33 1t20 6v-140q-21 26 -63 36t-100 10h-95v-205h106h13q30 0 44 1.5t26 7.5v-125q-12 19 -40.5 27t-67.5 8h-81v-265q52 -8 78 -11q51 -7 81 -7q55 0 103 15q56 18 102 56z
M432 794q-45 0 -95.5 19.5t-88.5 51.5q-38 -28 -93 -49.5t-103 -21.5l196 187z" />
    <glyph glyph-name="Edieresis" unicode="&#xcb;" horiz-adv-x="576" 
d="M555 152l-62 -150h-461q27 25 36.5 47.5t9.5 49.5v514q0 47 -5 66q-9 34 -41 58h364q25 0 33 1t20 6v-140q-21 26 -63 36t-100 10h-95v-205h106h13q30 0 44 1.5t26 7.5v-125q-12 19 -40.5 27t-67.5 8h-81v-265q52 -8 78 -11q51 -7 81 -7q55 0 103 15q56 18 102 56z
M432 868q0 -36 -22 -56t-52 -20q-28 0 -47.5 21.5t-19.5 56.5q0 33 21 52t50 19t49.5 -18.5t20.5 -54.5zM224 875q0 -36 -22 -56t-52 -20q-28 0 -47 22t-19 56q0 33 21 52t50 19q30 0 49.5 -18t19.5 -55z" />
    <glyph glyph-name="Igrave" unicode="&#xcc;" horiz-adv-x="311" 
d="M281 0h-246q21 4 41.5 30.5t20.5 63.5v540q0 36 -10 58q-13 27 -46 45h224q-29 -20 -42 -44t-13 -69v-530q0 -28 22.5 -59t48.5 -35zM245 805l-327 96l71 81z" />
    <glyph glyph-name="Iacute" unicode="&#xcd;" horiz-adv-x="311" 
d="M281 0h-246q21 4 41.5 30.5t20.5 63.5v540q0 36 -10 58q-13 27 -46 45h224q-29 -20 -42 -44t-13 -69v-530q0 -28 22.5 -59t48.5 -35zM392 867l-327 -96l256 177z" />
    <glyph glyph-name="Icircumflex" unicode="&#xce;" horiz-adv-x="311" 
d="M281 0h-246q21 4 41.5 30.5t20.5 63.5v540q0 36 -10 58q-13 27 -46 45h224q-29 -20 -42 -44t-13 -69v-530q0 -28 22.5 -59t48.5 -35zM340 778q-45 0 -95.5 19.5t-88.5 51.5q-38 -28 -93 -49.5t-103 -21.5l196 187z" />
    <glyph glyph-name="Idieresis" unicode="&#xcf;" horiz-adv-x="311" 
d="M281 0h-246q21 4 41.5 30.5t20.5 63.5v540q0 36 -10 58q-13 27 -46 45h224q-29 -20 -42 -44t-13 -69v-530q0 -28 22.5 -59t48.5 -35zM332 856q0 -36 -22 -56t-52 -20q-28 0 -47.5 21.5t-19.5 56.5q0 33 21 52t50 19t49.5 -18.5t20.5 -54.5zM124 863q0 -36 -22 -56
t-52 -20q-28 0 -47 22t-19 56q0 33 21 52t50 19q30 0 49.5 -18t19.5 -55z" />
    <glyph glyph-name="Ntilde" unicode="&#xd1;" horiz-adv-x="818" 
d="M809 737q-23 -15 -46 -29q-19 -21 -26 -84v-647q-27 0 -66.5 20.5t-57.5 46.5l-424 537v-466q0 -47 13 -71.5t49 -43.5h-214q37 25 46 36q19 23 25 70v500q0 68 -25 99q-9 11 -46 32h168l454 -571v449q0 111 -74 122h224zM623 948q-27 -81 -39 -99q-32 -48 -97 -48
q-25 0 -83.5 12.5t-82.5 12.5q-25 0 -50 -6.5t-56 -21.5q25 67 49.5 92.5t68.5 25.5q7 0 86 -14q39 -7 71 -7q41 0 77.5 13.5t55.5 39.5z" />
    <glyph glyph-name="Ograve" unicode="&#xd2;" horiz-adv-x="910" 
d="M873 373q0 -143 -96 -259q-113 -137 -302 -137q-202 0 -321 109q-115 105 -115 271q0 147 92 259q115 140 325 140q180 0 296 -101q121 -106 121 -282zM737 357q0 122 -79 217q-86 103 -213 103q-101 0 -179 -85q-84 -92 -84 -228q0 -128 89 -215q86 -84 204 -84
t190 83.5t72 208.5zM505 801l-327 96l71 81z" />
    <glyph glyph-name="Oacute" unicode="&#xd3;" horiz-adv-x="910" 
d="M873 373q0 -143 -96 -259q-113 -137 -302 -137q-202 0 -321 109q-115 105 -115 271q0 147 92 259q115 140 325 140q180 0 296 -101q121 -106 121 -282zM737 357q0 122 -79 217q-86 103 -213 103q-101 0 -179 -85q-84 -92 -84 -228q0 -128 89 -215q86 -84 204 -84
t190 83.5t72 208.5zM704 895l-327 -96l256 177z" />
    <glyph glyph-name="Ocircumflex" unicode="&#xd4;" horiz-adv-x="910" 
d="M873 373q0 -143 -96 -259q-113 -137 -302 -137q-202 0 -321 109q-115 105 -115 271q0 147 92 259q115 140 325 140q180 0 296 -101q121 -106 121 -282zM737 357q0 122 -79 217q-86 103 -213 103q-101 0 -179 -85q-84 -92 -84 -228q0 -128 89 -215q86 -84 204 -84
t190 83.5t72 208.5zM648 786q-45 0 -95.5 19.5t-88.5 51.5q-38 -28 -93 -49.5t-103 -21.5l196 187z" />
    <glyph glyph-name="Otilde" unicode="&#xd5;" horiz-adv-x="910" 
d="M873 373q0 -143 -96 -259q-113 -137 -302 -137q-202 0 -321 109q-115 105 -115 271q0 147 92 259q115 140 325 140q180 0 296 -101q121 -106 121 -282zM737 357q0 122 -79 217q-86 103 -213 103q-101 0 -179 -85q-84 -92 -84 -228q0 -128 89 -215q86 -84 204 -84
t190 83.5t72 208.5zM655 964q-27 -81 -39 -99q-32 -48 -97 -48q-25 0 -83.5 12.5t-82.5 12.5q-25 0 -50 -6.5t-56 -21.5q25 67 49.5 92.5t68.5 25.5q7 0 86 -14q39 -7 71 -7q41 0 77.5 13.5t55.5 39.5z" />
    <glyph glyph-name="Odieresis" unicode="&#xd6;" horiz-adv-x="910" 
d="M873 373q0 -143 -96 -259q-113 -137 -302 -137q-202 0 -321 109q-115 105 -115 271q0 147 92 259q115 140 325 140q180 0 296 -101q121 -106 121 -282zM737 357q0 122 -79 217q-86 103 -213 103q-101 0 -179 -85q-84 -92 -84 -228q0 -128 89 -215q86 -84 204 -84
t190 83.5t72 208.5zM632 868q0 -36 -22 -56t-52 -20q-28 0 -47.5 21.5t-19.5 56.5q0 33 21 52t50 19t49.5 -18.5t20.5 -54.5zM424 875q0 -36 -22 -56t-52 -20q-28 0 -47 22t-19 56q0 33 21 52t50 19q30 0 49.5 -18t19.5 -55z" />
    <glyph glyph-name="multiply" unicode="&#xd7;" horiz-adv-x="564" 
d="M527 56l-48 -48l-197 197l-196 -197l-48 48l196 197l-196 196l48 48l196 -197l197 197l48 -48l-197 -196z" />
    <glyph glyph-name="Oslash" unicode="&#xd8;" horiz-adv-x="910" 
d="M873 373q0 -143 -96 -259q-113 -137 -302 -137q-70 0 -118 9l-34 -99h-79l46 118q-119 42 -185 135.5t-66 216.5q0 147 92 259q115 140 325 140q17 0 36 -1.5t45 -5.5l37 120h78l-46 -139q121 -37 192 -128q75 -96 75 -229zM737 357q0 83 -42 159q-45 82 -119 122
l-189 -562q20 -6 39.5 -8.5t48.5 -2.5q118 0 190 83.5t72 208.5zM509 668q-24 6 -35.5 7.5t-28.5 1.5q-101 0 -179 -85q-84 -92 -84 -228q0 -84 38 -151t103 -107z" />
    <glyph glyph-name="Ugrave" unicode="&#xd9;" horiz-adv-x="726" 
d="M707 0h-166v71q-52 -56 -85 -71q-52 -23 -127 -23q-143 0 -213 86q-56 68 -56 172v408q0 34 -9.5 53.5t-32.5 40.5h203q-14 -12 -25.5 -40t-11.5 -54v-390q0 -100 56 -149q44 -39 110 -39q89 0 140 43t51 111v389q0 52 -11.5 80.5t-38.5 48.5h207q-22 -23 -31.5 -55
t-9.5 -74v-502q0 -45 10 -69.5t40 -36.5zM429 809l-327 96l71 81z" />
    <glyph glyph-name="Uacute" unicode="&#xda;" horiz-adv-x="726" 
d="M707 0h-166v71q-52 -56 -85 -71q-52 -23 -127 -23q-143 0 -213 86q-56 68 -56 172v408q0 34 -9.5 53.5t-32.5 40.5h203q-14 -12 -25.5 -40t-11.5 -54v-390q0 -100 56 -149q44 -39 110 -39q89 0 140 43t51 111v389q0 52 -11.5 80.5t-38.5 48.5h207q-22 -23 -31.5 -55
t-9.5 -74v-502q0 -45 10 -69.5t40 -36.5zM608 883l-327 -96l256 177z" />
    <glyph glyph-name="Ucircumflex" unicode="&#xdb;" horiz-adv-x="726" 
d="M707 0h-166v71q-52 -56 -85 -71q-52 -23 -127 -23q-143 0 -213 86q-56 68 -56 172v408q0 34 -9.5 53.5t-32.5 40.5h203q-14 -12 -25.5 -40t-11.5 -54v-390q0 -100 56 -149q44 -39 110 -39q89 0 140 43t51 111v389q0 52 -11.5 80.5t-38.5 48.5h207q-22 -23 -31.5 -55
t-9.5 -74v-502q0 -45 10 -69.5t40 -36.5zM536 774q-45 0 -95.5 19.5t-88.5 51.5q-38 -28 -93 -49.5t-103 -21.5l196 187z" />
    <glyph glyph-name="Udieresis" unicode="&#xdc;" horiz-adv-x="726" 
d="M707 0h-166v71q-52 -56 -85 -71q-52 -23 -127 -23q-143 0 -213 86q-56 68 -56 172v408q0 34 -9.5 53.5t-32.5 40.5h203q-14 -12 -25.5 -40t-11.5 -54v-390q0 -100 56 -149q44 -39 110 -39q89 0 140 43t51 111v389q0 52 -11.5 80.5t-38.5 48.5h207q-22 -23 -31.5 -55
t-9.5 -74v-502q0 -45 10 -69.5t40 -36.5zM544 848q0 -36 -22 -56t-52 -20q-28 0 -47.5 21.5t-19.5 56.5q0 33 21 52t50 19t49.5 -18.5t20.5 -54.5zM336 855q0 -36 -22 -56t-52 -20q-28 0 -47 22t-19 56q0 33 21 52t50 19q30 0 49.5 -18t19.5 -55z" />
    <glyph glyph-name="Yacute" unicode="&#xdd;" horiz-adv-x="726" 
d="M712 737l-293 -414v-226q0 -36 21 -62q14 -18 42 -35h-231q55 24 55 88v235l-202 329q-16 27 -36.5 45t-58.5 40h104q37 0 60.5 -10.5t54.5 -55.5l148 -254l149 219q10 14 10 37t-13 42t-31 22h221zM616 887l-327 -96l256 177z" />
    <glyph glyph-name="Thorn" unicode="&#xde;" horiz-adv-x="599" 
d="M576 402q0 -89 -85 -153q-72 -54 -136 -54q-55 0 -77 5.5t-38 22.5l16 -3q71 0 128.5 48.5t57.5 119.5q0 72 -48 106q-42 30 -118 30l-64 -3v-415q0 -43 18 -70q15 -22 44 -36h-239q27 12 44.5 40t17.5 66v509q0 63 -11 86t-42 36h208q-22 -11 -33 -71q-3 -20 -7 -59h78
q152 0 227 -69q59 -54 59 -136z" />
    <glyph glyph-name="germandbls" unicode="&#xdf;" 
d="M601 175q0 -78 -57.5 -133.5t-147.5 -55.5q-31 0 -62 7.5t-69 24.5l-28 118q35 -29 65 -45q41 -22 76 -22q45 0 77.5 27t32.5 70q0 30 -14 60.5t-34 49.5q-40 41 -129 81q-64 29 -64 62q0 31 70 82t70 103q0 33 -28.5 54.5t-65.5 21.5q-41 0 -69 -27q-33 -32 -33 -93
v-456q0 -44 7 -60q11 -24 49 -42h-215q33 11 44.5 32.5t11.5 64.5v346h-47l47 71q0 102 49 170q55 77 151 77q102 0 158 -48q49 -42 49 -102q0 -47 -29 -89.5t-79 -62.5q-21 -10 -21 -23q0 -16 45 -37l66 -28q63 -36 95 -90q29 -50 29 -108z" />
    <glyph glyph-name="agrave" unicode="&#xe0;" horiz-adv-x="599" 
d="M576 60l-55 -83q-69 0 -109.5 35.5t-40.5 95.5v168q-8 -6 -131 -37q-90 -23 -90 -87q0 -41 32 -69t81 -28q16 0 41 8.5t49 17.5l-63 -93q-10 -1 -21 -4q-27 -7 -36 -7q-86 0 -143.5 50.5t-57.5 115.5q0 92 76 130q36 18 157 38q47 9 77.5 28.5t30.5 40.5q0 30 -38 49.5
t-72 19.5q-36 0 -88.5 -16.5t-70.5 -22.5l87 115q9 0 35 5t41 5q85 0 138 -34q72 -46 72 -146v-187q0 -57 18 -80q22 -28 81 -28zM401 593l-327 96l71 81z" />
    <glyph glyph-name="aacute" unicode="&#xe1;" horiz-adv-x="599" 
d="M576 60l-55 -83q-69 0 -109.5 35.5t-40.5 95.5v168q-8 -6 -131 -37q-90 -23 -90 -87q0 -41 32 -69t81 -28q16 0 41 8.5t49 17.5l-63 -93q-10 -1 -21 -4q-27 -7 -36 -7q-86 0 -143.5 50.5t-57.5 115.5q0 92 76 130q36 18 157 38q47 9 77.5 28.5t30.5 40.5q0 30 -38 49.5
t-72 19.5q-36 0 -88.5 -16.5t-70.5 -22.5l87 115q9 0 35 5t41 5q85 0 138 -34q72 -46 72 -146v-187q0 -57 18 -80q22 -28 81 -28zM532 691l-327 -96l256 177z" />
    <glyph glyph-name="acircumflex" unicode="&#xe2;" horiz-adv-x="599" 
d="M576 60l-55 -83q-69 0 -109.5 35.5t-40.5 95.5v168q-8 -6 -131 -37q-90 -23 -90 -87q0 -41 32 -69t81 -28q16 0 41 8.5t49 17.5l-63 -93q-10 -1 -21 -4q-27 -7 -36 -7q-86 0 -143.5 50.5t-57.5 115.5q0 92 76 130q36 18 157 38q47 9 77.5 28.5t30.5 40.5q0 30 -38 49.5
t-72 19.5q-36 0 -88.5 -16.5t-70.5 -22.5l87 115q9 0 35 5t41 5q85 0 138 -34q72 -46 72 -146v-187q0 -57 18 -80q22 -28 81 -28zM484 566q-45 0 -95.5 19.5t-88.5 51.5q-38 -28 -93 -49.5t-103 -21.5l196 187z" />
    <glyph glyph-name="atilde" unicode="&#xe3;" horiz-adv-x="599" 
d="M576 60l-55 -83q-69 0 -109.5 35.5t-40.5 95.5v168q-8 -6 -131 -37q-90 -23 -90 -87q0 -41 32 -69t81 -28q16 0 41 8.5t49 17.5l-63 -93q-10 -1 -21 -4q-27 -7 -36 -7q-86 0 -143.5 50.5t-57.5 115.5q0 92 76 130q36 18 157 38q47 9 77.5 28.5t30.5 40.5q0 30 -38 49.5
t-72 19.5q-36 0 -88.5 -16.5t-70.5 -22.5l87 115q9 0 35 5t41 5q85 0 138 -34q72 -46 72 -146v-187q0 -57 18 -80q22 -28 81 -28zM499 724q-27 -81 -39 -99q-32 -48 -97 -48q-25 0 -83.5 12.5t-82.5 12.5q-25 0 -50 -6.5t-56 -21.5q25 67 49.5 92.5t68.5 25.5q7 0 86 -14
q39 -7 71 -7q41 0 77.5 13.5t55.5 39.5z" />
    <glyph glyph-name="adieresis" unicode="&#xe4;" horiz-adv-x="599" 
d="M576 60l-55 -83q-69 0 -109.5 35.5t-40.5 95.5v168q-8 -6 -131 -37q-90 -23 -90 -87q0 -41 32 -69t81 -28q16 0 41 8.5t49 17.5l-63 -93q-10 -1 -21 -4q-27 -7 -36 -7q-86 0 -143.5 50.5t-57.5 115.5q0 92 76 130q36 18 157 38q47 9 77.5 28.5t30.5 40.5q0 30 -38 49.5
t-72 19.5q-36 0 -88.5 -16.5t-70.5 -22.5l87 115q9 0 35 5t41 5q85 0 138 -34q72 -46 72 -146v-187q0 -57 18 -80q22 -28 81 -28zM456 652q0 -36 -22 -56t-52 -20q-28 0 -47.5 21.5t-19.5 56.5q0 33 21 52t50 19t49.5 -18.5t20.5 -54.5zM248 659q0 -36 -22 -56t-52 -20
q-28 0 -47 22t-19 56q0 33 21 52t50 19q30 0 49.5 -18t19.5 -55z" />
    <glyph glyph-name="aring" unicode="&#xe5;" horiz-adv-x="599" 
d="M422 694q0 -39 -36.5 -71.5t-78.5 -32.5q-40 0 -75 32t-35 70q0 37 35 68t73 31q39 0 78 -29.5t39 -67.5zM367 692q0 25 -15.5 42.5t-41.5 17.5q-24 0 -41 -20t-17 -42q0 -21 16.5 -39.5t38.5 -18.5t41 18t19 42zM576 60l-55 -83q-69 0 -109.5 35.5t-40.5 95.5v168
q-8 -6 -131 -37q-90 -23 -90 -87q0 -41 32 -69t81 -28q16 0 41 8.5t49 17.5l-63 -93q-10 -1 -21 -4q-27 -7 -36 -7q-86 0 -143.5 50.5t-57.5 115.5q0 92 76 130q36 18 157 38q47 9 77.5 28.5t30.5 40.5q0 30 -38 49.5t-72 19.5q-36 0 -88.5 -16.5t-70.5 -22.5l87 115
q9 0 35 5t41 5q85 0 138 -34q72 -46 72 -146v-187q0 -57 18 -80q22 -28 81 -28z" />
    <glyph glyph-name="ae" unicode="&#xe6;" horiz-adv-x="945" 
d="M908 129l-51 -108q-43 -19 -84.5 -30.5t-78.5 -11.5q-130 0 -226.5 89.5t-96.5 207.5q-8 -6 -131 -37q-90 -23 -90 -87q0 -41 32 -69t81 -28q16 0 41 8.5t49 17.5l-63 -93q-10 -1 -21 -4q-27 -7 -36 -7q-86 0 -143.5 50.5t-57.5 115.5q0 92 76 130q36 18 157 38
q47 9 77.5 28.5t30.5 40.5q0 30 -38 49.5t-72 19.5q-36 0 -88.5 -16.5t-70.5 -22.5l87 115q9 0 35 5t41 5q54 0 98 -16q55 -20 82 -63q40 38 86 58q54 23 119 23q112 0 182 -66q74 -70 74 -192h-431q0 -93 72 -155t184 -62q49 0 85 12q47 16 90 55zM786 350q0 34 -49 70
t-94 36q-49 0 -90 -26q-47 -30 -60 -80h293z" />
    <glyph glyph-name="ccedilla" unicode="&#xe7;" horiz-adv-x="576" 
d="M555 118l-64 -116q-58 -25 -136 -25q-132 0 -222 67q-105 78 -105 221q0 126 107 202q95 68 224 68q27 0 57.5 -5.5t65.5 -13.5v-124q-25 25 -66.5 41t-83.5 16q-75 0 -126 -45q-59 -52 -59 -144q0 -98 78 -152q66 -46 160 -46q48 0 95.5 15t74.5 41zM467 -127
q0 -34 -32.5 -62t-80.5 -28q-25 0 -54 9.5t-59 29.5l37 53q23 -20 43 -29.5t35 -9.5t25 8t10 20q0 15 -18 22.5t-44 7.5l-35 34l23 55l55 -1l-16 -45l19 3q46 0 69 -19t23 -48z" />
    <glyph glyph-name="egrave" unicode="&#xe8;" horiz-adv-x="611" 
d="M581 127l-51 -109q-39 -17 -83 -29t-81 -12q-133 0 -233.5 83.5t-100.5 199.5q0 96 72 178q85 97 221 97q112 0 182 -66q74 -70 74 -193h-431q0 -93 71.5 -154.5t184.5 -61.5q48 0 85 12q48 16 90 55zM459 348q0 34 -49 70t-94 36q-49 0 -90 -26q-47 -30 -60 -80h293z
M421 593l-327 96l71 81z" />
    <glyph glyph-name="eacute" unicode="&#xe9;" horiz-adv-x="611" 
d="M581 127l-51 -109q-39 -17 -83 -29t-81 -12q-133 0 -233.5 83.5t-100.5 199.5q0 96 72 178q85 97 221 97q112 0 182 -66q74 -70 74 -193h-431q0 -93 71.5 -154.5t184.5 -61.5q48 0 85 12q48 16 90 55zM459 348q0 34 -49 70t-94 36q-49 0 -90 -26q-47 -30 -60 -80h293z
M576 675l-327 -96l256 177z" />
    <glyph glyph-name="ecircumflex" unicode="&#xea;" horiz-adv-x="611" 
d="M581 127l-51 -109q-39 -17 -83 -29t-81 -12q-133 0 -233.5 83.5t-100.5 199.5q0 96 72 178q85 97 221 97q112 0 182 -66q74 -70 74 -193h-431q0 -93 71.5 -154.5t184.5 -61.5q48 0 85 12q48 16 90 55zM459 348q0 34 -49 70t-94 36q-49 0 -90 -26q-47 -30 -60 -80h293z
M516 554q-45 0 -95.5 19.5t-88.5 51.5q-38 -28 -93 -49.5t-103 -21.5l196 187z" />
    <glyph glyph-name="edieresis" unicode="&#xeb;" horiz-adv-x="611" 
d="M581 127l-51 -109q-39 -17 -83 -29t-81 -12q-133 0 -233.5 83.5t-100.5 199.5q0 96 72 178q85 97 221 97q112 0 182 -66q74 -70 74 -193h-431q0 -93 71.5 -154.5t184.5 -61.5q48 0 85 12q48 16 90 55zM459 348q0 34 -49 70t-94 36q-49 0 -90 -26q-47 -30 -60 -80h293z
M500 652q0 -36 -22 -56t-52 -20q-28 0 -47.5 21.5t-19.5 56.5q0 33 21 52t50 19t49.5 -18.5t20.5 -54.5zM292 659q0 -36 -22 -56t-52 -20q-28 0 -47 22t-19 56q0 33 21 52t50 19q30 0 49.5 -18t19.5 -55z" />
    <glyph glyph-name="igrave" unicode="&#xec;" horiz-adv-x="288" 
d="M251 2h-214q33 19 44 38.5t11 49.5v336q0 46 -15 66q-20 17 -29 26h63h14q34 0 50.5 3t22.5 14v-445q0 -35 9.5 -52t43.5 -36zM241 577l-327 96l71 81z" />
    <glyph glyph-name="iacute" unicode="&#xed;" horiz-adv-x="288" 
d="M251 2h-214q33 19 44 38.5t11 49.5v336q0 46 -15 66q-20 17 -29 26h63h14q34 0 50.5 3t22.5 14v-445q0 -35 9.5 -52t43.5 -36zM348 679l-327 -96l256 177z" />
    <glyph glyph-name="icircumflex" unicode="&#xee;" horiz-adv-x="288" 
d="M251 2h-214q33 19 44 38.5t11 49.5v336q0 46 -15 66q-20 17 -29 26h63h14q34 0 50.5 3t22.5 14v-445q0 -35 9.5 -52t43.5 -36zM336 558q-45 0 -95.5 19.5t-88.5 51.5q-38 -28 -93 -49.5t-103 -21.5l196 187z" />
    <glyph glyph-name="idieresis" unicode="&#xef;" horiz-adv-x="288" 
d="M251 2h-214q33 19 44 38.5t11 49.5v336q0 46 -15 66q-20 17 -29 26h63h14q34 0 50.5 3t22.5 14v-445q0 -35 9.5 -52t43.5 -36zM320 644q0 -36 -22 -56t-52 -20q-28 0 -47.5 21.5t-19.5 56.5q0 33 21 52t50 19t49.5 -18.5t20.5 -54.5zM112 651q0 -36 -22 -56t-52 -20
q-28 0 -47 22t-19 56q0 33 21 52t50 19q30 0 49.5 -18t19.5 -55z" />
    <glyph glyph-name="ntilde" unicode="&#xf1;" horiz-adv-x="645" 
d="M611 2h-212q29 13 41 34t12 72v231q0 56 -39 86.5t-93 30.5q-49 0 -85 -38q-41 -43 -41 -107v-205q0 -53 14 -76t50 -28h-223q29 12 45.5 35t16.5 62v327q0 44 -10 63.5t-34 35.5l76 -2q24 0 39 4.5t26 16.5v-90q23 38 71 59.5t104 21.5q77 0 130 -44q61 -51 61 -141
v-242q0 -48 10.5 -71t40.5 -35zM527 736q-27 -81 -39 -99q-32 -48 -97 -48q-25 0 -83.5 12.5t-82.5 12.5q-25 0 -50 -6.5t-56 -21.5q25 67 49.5 92.5t68.5 25.5q7 0 86 -14q39 -7 71 -7q41 0 77.5 13.5t55.5 39.5z" />
    <glyph glyph-name="ograve" unicode="&#xf2;" 
d="M611 263q0 -118 -81 -200q-85 -86 -212 -86q-125 0 -206 86q-77 82 -77 195q0 117 87 197t212 80q122 0 201 -81q76 -78 76 -191zM498 251q0 78 -39 135q-46 68 -127 68q-84 0 -135 -58q-47 -54 -47 -131q0 -80 45 -141q51 -69 132 -69q80 0 128 65q43 58 43 131z
M425 585l-327 96l71 81z" />
    <glyph glyph-name="oacute" unicode="&#xf3;" 
d="M611 263q0 -118 -81 -200q-85 -86 -212 -86q-125 0 -206 86q-77 82 -77 195q0 117 87 197t212 80q122 0 201 -81q76 -78 76 -191zM498 251q0 78 -39 135q-46 68 -127 68q-84 0 -135 -58q-47 -54 -47 -131q0 -80 45 -141q51 -69 132 -69q80 0 128 65q43 58 43 131z
M564 659l-327 -96l256 177z" />
    <glyph glyph-name="ocircumflex" unicode="&#xf4;" 
d="M611 263q0 -118 -81 -200q-85 -86 -212 -86q-125 0 -206 86q-77 82 -77 195q0 117 87 197t212 80q122 0 201 -81q76 -78 76 -191zM498 251q0 78 -39 135q-46 68 -127 68q-84 0 -135 -58q-47 -54 -47 -131q0 -80 45 -141q51 -69 132 -69q80 0 128 65q43 58 43 131z
M520 570q-45 0 -95.5 19.5t-88.5 51.5q-38 -28 -93 -49.5t-103 -21.5l196 187z" />
    <glyph glyph-name="otilde" unicode="&#xf5;" 
d="M611 263q0 -118 -81 -200q-85 -86 -212 -86q-125 0 -206 86q-77 82 -77 195q0 117 87 197t212 80q122 0 201 -81q76 -78 76 -191zM498 251q0 78 -39 135q-46 68 -127 68q-84 0 -135 -58q-47 -54 -47 -131q0 -80 45 -141q51 -69 132 -69q80 0 128 65q43 58 43 131z
M519 728q-27 -81 -39 -99q-32 -48 -97 -48q-25 0 -83.5 12.5t-82.5 12.5q-25 0 -50 -6.5t-56 -21.5q25 67 49.5 92.5t68.5 25.5q7 0 86 -14q39 -7 71 -7q41 0 77.5 13.5t55.5 39.5z" />
    <glyph glyph-name="odieresis" unicode="&#xf6;" 
d="M611 263q0 -118 -81 -200q-85 -86 -212 -86q-125 0 -206 86q-77 82 -77 195q0 117 87 197t212 80q122 0 201 -81q76 -78 76 -191zM498 251q0 78 -39 135q-46 68 -127 68q-84 0 -135 -58q-47 -54 -47 -131q0 -80 45 -141q51 -69 132 -69q80 0 128 65q43 58 43 131z
M500 652q0 -36 -22 -56t-52 -20q-28 0 -47.5 21.5t-19.5 56.5q0 33 21 52t50 19t49.5 -18.5t20.5 -54.5zM292 659q0 -36 -22 -56t-52 -20q-28 0 -47 22t-19 56q0 33 21 52t50 19q30 0 49.5 -18t19.5 -55z" />
    <glyph glyph-name="divide" unicode="&#xf7;" horiz-adv-x="564" 
d="M338 459q0 -25 -18.5 -39.5t-37.5 -14.5q-20 0 -35 12q-20 16 -20 42q0 23 16 40t39 17q22 0 39 -17t17 -40zM534 220h-504v66h504v-66zM338 44q0 -25 -18.5 -39.5t-37.5 -14.5q-20 0 -35 12q-20 16 -20 42q0 23 16 40t39 17q22 0 39 -17t17 -40z" />
    <glyph glyph-name="oslash" unicode="&#xf8;" 
d="M611 263q0 -118 -81 -200q-85 -86 -212 -86q-13 0 -24.5 0.5t-42.5 4.5l-27 -76h-79l37 103q-70 36 -108.5 103t-38.5 146q0 117 87 197t212 80q14 0 24.5 -2t17.5 -3l25 81h69l-32 -97q77 -31 125 -100t48 -151zM498 251q0 54 -21 100q-24 53 -69 80l-127 -371
q8 -3 20 -4t26 -1q80 0 128 65q43 58 43 131zM341 452l-9 2q-84 0 -135 -58q-47 -54 -47 -131q0 -49 17.5 -93.5t51.5 -74.5z" />
    <glyph glyph-name="ugrave" unicode="&#xf9;" 
d="M601 2h-159v79q-7 -42 -54 -73t-102 -31q-75 0 -133 49q-65 55 -65 142v251q0 44 -16 69q-11 18 -40 37q11 0 48 -5q15 -2 26 -2q44 0 88 17v-321q0 -62 34.5 -103.5t82.5 -41.5q43 0 85 37q46 41 46 90v230q0 44 -10 63.5t-33 35.5q18 -3 36.5 -5t25.5 -2q56 0 87 17
v-427q0 -47 17 -73q11 -17 36 -33zM405 601l-327 96l71 81z" />
    <glyph glyph-name="uacute" unicode="&#xfa;" 
d="M601 2h-159v79q-7 -42 -54 -73t-102 -31q-75 0 -133 49q-65 55 -65 142v251q0 44 -16 69q-11 18 -40 37q11 0 48 -5q15 -2 26 -2q44 0 88 17v-321q0 -62 34.5 -103.5t82.5 -41.5q43 0 85 37q46 41 46 90v230q0 44 -10 63.5t-33 35.5q18 -3 36.5 -5t25.5 -2q56 0 87 17
v-427q0 -47 17 -73q11 -17 36 -33zM596 675l-327 -96l256 177z" />
    <glyph glyph-name="ucircumflex" unicode="&#xfb;" 
d="M601 2h-159v79q-7 -42 -54 -73t-102 -31q-75 0 -133 49q-65 55 -65 142v251q0 44 -16 69q-11 18 -40 37q11 0 48 -5q15 -2 26 -2q44 0 88 17v-321q0 -62 34.5 -103.5t82.5 -41.5q43 0 85 37q46 41 46 90v230q0 44 -10 63.5t-33 35.5q18 -3 36.5 -5t25.5 -2q56 0 87 17
v-427q0 -47 17 -73q11 -17 36 -33zM500 570q-45 0 -95.5 19.5t-88.5 51.5q-38 -28 -93 -49.5t-103 -21.5l196 187z" />
    <glyph glyph-name="udieresis" unicode="&#xfc;" 
d="M601 2h-159v79q-7 -42 -54 -73t-102 -31q-75 0 -133 49q-65 55 -65 142v251q0 44 -16 69q-11 18 -40 37q11 0 48 -5q15 -2 26 -2q44 0 88 17v-321q0 -62 34.5 -103.5t82.5 -41.5q43 0 85 37q46 41 46 90v230q0 44 -10 63.5t-33 35.5q18 -3 36.5 -5t25.5 -2q56 0 87 17
v-427q0 -47 17 -73q11 -17 36 -33zM488 644q0 -36 -22 -56t-52 -20q-28 0 -47.5 21.5t-19.5 56.5q0 33 21 52t50 19t49.5 -18.5t20.5 -54.5zM280 651q0 -36 -22 -56t-52 -20q-28 0 -47 22t-19 56q0 33 21 52t50 19q30 0 49.5 -18t19.5 -55z" />
    <glyph glyph-name="yacute" unicode="&#xfd;" horiz-adv-x="622" 
d="M615 516l-242 -567q-44 -78 -70 -106q-66 -71 -158 -71q-23 0 -52.5 5.5t-99.5 26.5l101 72q40 -28 67 -28q48 0 91 58q30 41 52 103l-214 417q-19 41 -38 61q-10 10 -38 29h115q24 0 35 -10t25 -45l157 -353l133 327q5 12 5 21q0 21 -16 39q-12 14 -30 21h177zM608 647
l-327 -96l256 177z" />
    <glyph glyph-name="thorn" unicode="&#xfe;" horiz-adv-x="657" 
d="M622 267q0 -108 -72 -195q-79 -95 -195 -95q-19 0 -42 6l-46 12l-71 106q64 -36 140 -36q74 0 123.5 55.5t49.5 139.5q0 77 -42 133q-46 61 -119 61q-89 0 -128 -38q-43 -42 -43 -140v-398q0 -43 11.5 -68t44.5 -38h-224q38 12 53 40q12 23 12 64v767q0 32 -7 50
q-11 28 -39 42l71 -2q33 0 54 4.5t24 16.5v-293q29 34 80.5 54t108.5 20q102 0 172 -60q84 -72 84 -208z" />
    <glyph glyph-name="ydieresis" unicode="&#xff;" horiz-adv-x="622" 
d="M615 516l-242 -567q-44 -78 -70 -106q-66 -71 -158 -71q-23 0 -52.5 5.5t-99.5 26.5l101 72q40 -28 67 -28q48 0 91 58q30 41 52 103l-214 417q-19 41 -38 61q-10 10 -38 29h115q24 0 35 -10t25 -45l157 -353l133 327q5 12 5 21q0 21 -16 39q-12 14 -30 21h177zM500 632
q0 -36 -22 -56t-52 -20q-28 0 -47.5 21.5t-19.5 56.5q0 33 21 52t50 19t49.5 -18.5t20.5 -54.5zM292 639q0 -36 -22 -56t-52 -20q-28 0 -47 22t-19 56q0 33 21 52t50 19q30 0 49.5 -18t19.5 -55z" />
    <glyph glyph-name="Zcaron" unicode="&#x17d;" horiz-adv-x="680" 
d="M554 966l-184 -187l-196 187q49 0 102.5 -21t93.5 -50q38 32 87.5 51.5t96.5 19.5zM668 138l-62 -138h-594l410 652q-29 5 -60.5 8.5t-68.5 3.5q-71 0 -134 -15.5t-101 -49.5l53 138h513l-417 -649l42 2q23 0 89 -6t104 -6q64 0 120 13t106 47z" />
    <glyph glyph-name="zcaron" unicode="&#x17e;" horiz-adv-x="588" 
d="M504 751l-184 -187l-196 187q49 0 102.5 -21t93.5 -50q38 32 87.5 51.5t96.5 19.5zM565 127l-63 -125h-484l307 433l-21 -2q-17 0 -59.5 2.5t-55.5 2.5q-44 0 -82 -10t-66 -36l63 124h408l-302 -426q29 0 106 -9q43 -5 64 -5q53 0 98 11.5t87 39.5z" />
  </font>
</defs>
</svg>
